<svg xmlns="http://www.w3.org/2000/svg" width="34" height="33" viewBox="0 0 34 33">
    <g fill="none" fill-rule="evenodd">
        <ellipse cx="16.951" cy="16.394" fill="#198FD1" rx="16.951" ry="16.394"/>
        <path fill="#FFF" d="M16.669 4.446l1.105 5.649c2.704.456 4.836 2.553 5.3 5.212l5.744 1.087-5.745 1.086c-.463 2.659-2.595 4.756-5.299 5.212l-1.105 5.65-1.106-5.65c-2.703-.456-4.836-2.553-5.299-5.212L4.52 16.394l5.744-1.087c.108-.62.307-1.208.582-1.753l1.165 1.683a4.66 4.66 0 0 0-.145 1.157c0 2.608 2.15 4.723 4.803 4.723s4.803-2.115 4.803-4.723c0-2.61-2.15-4.724-4.803-4.724-.395 0-.78.047-1.147.136l-1.702-1.158a6.528 6.528 0 0 1 1.743-.553l1.106-5.65z"/>
        <path fill="#EA3939" d="M5.906 5.795l12.586 8.842-3.596 3.536z"/>
        <path fill="#F8D8D8" d="M27.43 26.963l-12.586-8.84 3.596-3.537z"/>
        <ellipse cx="16.669" cy="16.394" fill="#FFF" rx="2.543" ry="2.501"/>
    </g>
</svg>
