<?xml version="1.0" encoding="utf-8"?>
<!-- Generator: Adobe Illustrator 16.0.0, SVG Export Plug-In . SVG Version: 6.00 Build 0)  -->
<!DOCTYPE svg PUBLIC "-//W3C//DTD SVG 1.1//EN" "http://www.w3.org/Graphics/SVG/1.1/DTD/svg11.dtd">
<svg version="1.1" id="Layer_1" xmlns="http://www.w3.org/2000/svg" xmlns:xlink="http://www.w3.org/1999/xlink" x="0px" y="0px"
	 width="256.491px" height="63.63px" viewBox="162.627 389.127 256.491 63.63"
	 enable-background="new 162.627 389.127 256.491 63.63" xml:space="preserve">
<path fill="#008BCE" d="M245.461,433.341c2.093,0,3.203-0.976,3.203-2.736s-1.11-2.716-3.231-2.716h-2.51v5.452H245.461z
	 M239.154,427.033c0-1.343,0.75-2.121,1.987-2.121h4.37c4.419,0,6.873,1.966,6.873,5.657c0,3.719-2.348,5.635-6.873,5.635h-2.531
	v3.805c0,1.089-0.565,1.731-1.654,1.731h-0.566c-1.004,0-1.598-0.594-1.598-1.731v-12.976H239.154z"/>
<path fill="#008BCE" d="M262.615,434.196c-0.078-1.754-1.188-2.92-2.941-2.92c-1.711,0-2.998,1.216-3.26,2.92H262.615z
	 M259.723,428.744c3.719,0,6.279,2.609,6.279,6.308v0.262c-0.028,0.644-0.205,1.004-0.876,1.004h-8.711
	c0.262,1.888,1.711,2.998,3.67,2.998c1.909,0,2.97-0.855,3.563-1.859c0.028-0.05,1.761,0.184,1.761,1.626
	c0,1.372-1.938,2.892-5.452,2.892c-4.115,0-6.823-2.56-6.823-6.54C253.133,431.58,255.898,428.744,259.723,428.744"/>
<path fill="#008BCE" d="M268.816,431.87h-0.615c-1.04,0-1.527-0.438-1.527-1.266v-0.233c0-0.877,0.495-1.344,1.527-1.344h0.615
	v-1.604c0-1.188,0.622-1.754,1.654-1.754h0.311c0.976,0,1.626,0.41,1.626,1.754v1.604h2.199c1.033,0,1.478,0.438,1.478,1.287v0.205
	c0,0.877-0.467,1.344-1.499,1.344h-2.249v5.373c0,1.237,0.417,1.86,1.4,1.86c0.75,0,1.237-0.361,1.626-0.856
	c0.049-0.077,0.876,0.41,0.876,1.422c0,1.266-1.266,2.298-3.33,2.298c-2.793,0-4.087-1.478-4.087-4.313v-5.776H268.816z"/>
<g>
	<path fill="#008BCE" d="M207.067,408.409c0.325,2.983,2.842,5.303,5.911,5.317l0,0c0.007,0,0.021,0.007,0.021,0.021
		c0,0.015-0.007,0.021-0.021,0.021l0,0c-3.281,0.014-5.933,2.673-5.947,5.946c0,0.015-0.007,0.021-0.021,0.021
		s-0.021-0.007-0.021-0.021c-0.014-3.28-2.666-5.939-5.954-5.946l0,0c-0.014,0-0.021-0.007-0.021-0.021
		c0-0.014,0.007-0.021,0.021-0.021c3.168-0.008,5.749-2.482,5.939-5.601v-18.999H181.91v19.282h-19.282v25.065h19.282v19.282h25.065
		v-8.252c-0.021-6.045-4.914-10.945-10.966-10.952l0,0c-0.021,0-0.036-0.014-0.036-0.035s0.014-0.035,0.036-0.035
		c6.052-0.015,10.945-4.907,10.966-10.953c0-0.021,0.014-0.035,0.036-0.035c0.021,0,0.035,0.014,0.035,0.035l0,0
		c0.021,5.982,4.815,10.84,10.783,10.953h8.435v-25.066h-19.197V408.409z M204.083,423.251L204.083,423.251
		c-3.281,0.014-5.933,2.673-5.947,5.946c0,0.014-0.007,0.021-0.021,0.021s-0.021-0.008-0.021-0.021
		c-0.014-3.281-2.672-5.939-5.954-5.946c-0.007,0-0.021-0.008-0.021-0.021c0-0.015,0.007-0.021,0.021-0.021
		c3.288-0.007,5.947-2.666,5.954-5.946c0-0.007,0.007-0.021,0.021-0.021c0.007,0,0.014,0.007,0.021,0.021l0,0
		c0.014,3.28,2.666,5.933,5.947,5.946c0.014,0,0.021,0.007,0.021,0.021C204.104,423.243,204.098,423.251,204.083,423.251
		 M221.866,423.251L221.866,423.251c-3.281,0.014-5.932,2.673-5.946,5.946c0,0.014-0.007,0.021-0.021,0.021
		c-0.007,0-0.021-0.008-0.021-0.021c-0.014-3.281-2.673-5.939-5.954-5.946c-0.014,0-0.021-0.008-0.021-0.021
		c0-0.015,0.007-0.021,0.021-0.021c3.288-0.007,5.946-2.666,5.954-5.946c0-0.007,0.007-0.021,0.021-0.021s0.021,0.007,0.021,0.021
		l0,0c0.014,3.28,2.666,5.933,5.946,5.946c0.014,0,0.021,0.007,0.021,0.021C221.888,423.243,221.88,423.251,221.866,423.251"/>
</g>
<g>
	<path fill="#008BCE" d="M283.396,426.546c0-1.167,0.566-1.732,1.626-1.732h0.516c1.11,0,1.676,0.565,1.676,1.732v13.463
		c0,1.138-0.566,1.731-1.676,1.731h-0.516c-1.061,0-1.626-0.594-1.626-1.731V426.546z"/>
	<path fill="#008BCE" d="M289.611,429.31c0-0.106,0.644-0.417,1.372-0.417c0.926,0,1.938,0.438,2.199,2.071
		c0.876-1.294,2.199-2.221,4.165-2.221c3.282,0,4.674,2.327,4.674,5.219v6.046c0,1.314-0.672,1.725-1.605,1.725h-0.389
		c-0.977,0-1.648-0.382-1.648-1.725V434.5c0-1.683-0.855-2.715-2.326-2.715c-1.294,0-2.27,0.672-2.793,1.654v6.569
		c0,1.314-0.672,1.725-1.605,1.725h-0.382c-0.983,0-1.655-0.382-1.655-1.725V429.31H289.611z"/>
	<path fill="#008BCE" d="M305.025,437.681c0.877,0.927,2.299,1.676,4.166,1.676c1.42,0,2.219-0.41,2.219-1.216
		c0-0.954-1.004-1.11-2.707-1.478c-1.732-0.389-4.447-0.955-4.447-3.825c0-2.454,2.07-4.08,5.273-4.08
		c3.416,0,5.119,1.237,5.119,2.687c0,0.955-1.109,1.627-1.188,1.549c-0.855-0.982-2.219-1.683-3.689-1.683
		c-1.373,0-2.15,0.438-2.15,1.237c0,0.905,1.012,1.032,2.688,1.421c1.789,0.389,4.652,0.983,4.652,3.854
		c0,2.531-2.094,4.087-5.559,4.087c-3.697,0-5.479-1.294-5.479-2.743C303.923,438.255,304.955,437.611,305.025,437.681"/>
	<path fill="#008BCE" d="M316.755,430.653c0-1.314,0.672-1.76,1.598-1.76h0.391c0.953,0,1.654,0.417,1.654,1.76v5.558
		c0,1.676,0.855,2.716,2.375,2.716c1.217,0,2.199-0.672,2.715-1.655v-6.618c0-1.314,0.672-1.76,1.627-1.76h0.361
		c0.982,0,1.654,0.417,1.654,1.76v10.677c0,0.128-0.615,0.41-1.373,0.41c-0.904,0-1.908-0.382-2.199-1.986
		c-0.875,1.294-2.17,2.22-4.135,2.22c-3.311,0-4.674-2.326-4.674-5.218v-6.103H316.755z"/>
	<path fill="#008BCE" d="M331.378,429.31c0-0.106,0.643-0.417,1.371-0.417c0.955,0,1.988,0.438,2.221,2.149
		c0.516-1.45,1.549-2.299,3.076-2.299c1.477,0,2.354,0.828,2.354,2.122c0,1.449-1.109,1.958-1.166,1.909
		c-0.389-0.361-0.955-0.615-1.654-0.615c-1.781,0-2.561,1.548-2.561,4.079v3.776c0,1.314-0.672,1.725-1.604,1.725h-0.383
		c-0.982,0-1.654-0.382-1.654-1.725V429.31z"/>
	<path fill="#008BCE" d="M346.636,439.542c1.811,0,3.076-1.188,3.076-2.843v-0.729l-0.672,0.028
		c-2.871,0.078-4.369,0.644-4.369,2.016C344.671,438.947,345.421,439.542,346.636,439.542 M349.296,433.991h0.416
		c0-1.626-0.904-2.51-2.58-2.51c-1.762,0-2.666,0.954-3.133,1.937c0,0.05-2.348,0.128-2.348-1.548c0-1.577,1.859-3.133,5.707-3.133
		c3.98,0,5.945,1.811,5.945,5.197v7.474c0,0.184-0.672,0.41-1.363,0.41c-1.168,0-1.938-0.615-2.15-1.986
		c-0.904,1.314-2.51,2.093-4.369,2.093c-2.639,0-4.236-1.499-4.236-3.642C341.179,435.384,343.767,434.069,349.296,433.991"/>
	<path fill="#008BCE" d="M355.638,429.275c0-0.106,0.643-0.418,1.371-0.418c0.928,0,1.938,0.438,2.199,2.072
		c0.877-1.294,2.199-2.221,4.158-2.221c3.281,0,4.68,2.326,4.68,5.226v6.046c0,1.314-0.67,1.725-1.604,1.725h-0.389
		c-0.977,0-1.648-0.382-1.648-1.725v-5.509c0-1.683-0.855-2.715-2.326-2.715c-1.295,0-2.27,0.672-2.793,1.654v6.569
		c0,1.314-0.672,1.725-1.605,1.725H357.3c-0.984,0-1.654-0.382-1.654-1.725v-10.705H355.638z"/>
	<path fill="#008BCE" d="M376.589,428.765c3.854,0,5.373,2.199,5.373,3.408c0,1.478-1.938,1.732-2.016,1.605
		c-0.494-1.217-1.42-2.093-3.203-2.093c-1.986,0-3.436,1.526-3.436,3.641c0,2.171,1.449,3.72,3.436,3.72
		c1.732,0,2.715-0.877,3.203-2.093c0.057-0.156,2.016,0.077,2.016,1.626c0,1.188-1.598,3.38-5.373,3.38
		c-3.904,0-6.641-2.736-6.641-6.64C369.943,431.51,372.736,428.765,376.589,428.765"/>
	<path fill="#008BCE" d="M392.859,434.196c-0.078-1.754-1.188-2.92-2.941-2.92c-1.711,0-2.998,1.216-3.26,2.92H392.859z
		 M389.966,428.744c3.719,0,6.279,2.609,6.279,6.308v0.262c-0.029,0.644-0.205,1.004-0.877,1.004h-8.711
		c0.262,1.888,1.711,2.998,3.67,2.998c1.908,0,2.969-0.855,3.563-1.859c0.029-0.05,1.762,0.184,1.762,1.626
		c0,1.372-1.938,2.892-5.451,2.892c-4.115,0-6.824-2.56-6.824-6.54C383.376,431.587,386.142,428.744,389.966,428.744"/>
</g>
<g>
	<path fill="#008BCE" d="M269.042,406.677c0-1.322,0.672-1.761,1.605-1.761h0.389c0.955,0,1.655,0.417,1.655,1.761v5.564
		c0,1.683,0.855,2.715,2.383,2.715c1.216,0,2.199-0.671,2.722-1.654v-6.632c0-1.322,0.672-1.761,1.633-1.761h0.361
		c0.983,0,1.654,0.417,1.654,1.761v10.697c0,0.128-0.622,0.418-1.372,0.418c-0.905,0-1.916-0.39-2.199-1.994
		c-0.884,1.294-2.178,2.227-4.144,2.227c-3.316,0-4.688-2.333-4.688-5.231V406.677z"/>
	<path fill="#008BCE" d="M285.326,407.892h-0.622c-1.04,0-1.527-0.438-1.527-1.266v-0.233c0-0.884,0.495-1.344,1.527-1.344h0.622
		v-1.604c0-1.195,0.623-1.761,1.655-1.761h0.311c0.983,0,1.633,0.417,1.633,1.761v1.604h2.199c1.04,0,1.478,0.438,1.478,1.294v0.205
		c0,0.885-0.466,1.344-1.499,1.344h-2.255v5.388c0,1.245,0.41,1.867,1.4,1.867c0.75,0,1.245-0.36,1.633-0.855
		c0.05-0.078,0.877,0.417,0.877,1.421c0,1.266-1.266,2.306-3.337,2.306c-2.8,0-4.094-1.479-4.094-4.328V407.892L285.326,407.892z"/>
	<path fill="#008BCE" d="M294.603,400.1c0-0.127,0.644-0.417,1.372-0.417c1.089,0,2.276,0.572,2.276,2.928v4.454
		c0.807-1.322,2.1-2.305,4.094-2.305c3.289,0,4.688,2.383,4.688,5.331v5.953c0,1.322-0.67,1.732-1.604,1.732h-0.389
		c-0.984,0-1.656-0.389-1.656-1.732v-5.438c0-1.76-0.875-2.8-2.305-2.8c-1.732,0-2.82,1.139-2.82,2.949v5.281
		c0,1.322-0.672,1.732-1.605,1.732h-0.389c-0.983,0-1.655-0.389-1.655-1.732V400.1H294.603z"/>
	<path fill="#008BCE" d="M318.347,410.226c-0.078-1.761-1.195-2.928-2.955-2.928c-1.711,0-3.006,1.216-3.26,2.928H318.347z
		 M315.441,404.76c3.727,0,6.293,2.616,6.293,6.321v0.261c-0.029,0.651-0.205,1.012-0.885,1.012h-8.725
		c0.262,1.888,1.711,3.005,3.678,3.005c1.916,0,2.977-0.855,3.57-1.866c0.027-0.05,1.76,0.184,1.76,1.633
		c0,1.372-1.943,2.899-5.465,2.899c-4.115,0-6.838-2.567-6.838-6.555C308.837,407.61,311.609,404.76,315.441,404.76"/>
	<path fill="#008BCE" d="M323.601,405.333c0-0.106,0.65-0.417,1.371-0.417c0.955,0,1.994,0.438,2.227,2.149
		c0.518-1.449,1.557-2.305,3.084-2.305c1.477,0,2.354,0.827,2.354,2.121c0,1.449-1.109,1.966-1.166,1.916
		c-0.389-0.36-0.955-0.622-1.654-0.622c-1.789,0-2.566,1.556-2.566,4.094v3.783c0,1.322-0.672,1.739-1.605,1.739h-0.389
		c-0.982,0-1.654-0.389-1.654-1.739V405.333z"/>
	<path fill="#008BCE" d="M334.412,405.333c0-0.106,0.643-0.417,1.371-0.417c0.934,0,1.945,0.438,2.199,2.071
		c0.877-1.294,2.199-2.227,4.172-2.227c3.289,0,4.688,2.333,4.688,5.232v6.06c0,1.322-0.672,1.739-1.604,1.739h-0.391
		c-0.982,0-1.654-0.389-1.654-1.739v-5.516c0-1.683-0.855-2.715-2.332-2.715c-1.295,0-2.277,0.672-2.801,1.654v6.576
		c0,1.322-0.672,1.739-1.605,1.739h-0.389c-0.982,0-1.654-0.389-1.654-1.739V405.333L334.412,405.333z"/>
	<path fill="#008BCE" d="M362.56,400.595c4.455,0,6.449,2.433,6.449,3.783c0,1.654-2.15,2.071-2.199,1.944
		c-0.828-1.45-2.412-2.277-4.094-2.277c-2.822,0-4.865,2.121-4.865,5.261c0,3.111,2.072,5.282,4.893,5.282
		c1.945,0,3.521-0.962,4.172-2.538c0.051-0.128,2.277,0.282,2.277,1.944c0,1.421-2.072,4.037-6.682,4.037
		c-5.078,0-8.598-3.57-8.598-8.704C353.906,404.216,357.433,400.595,362.56,400.595"/>
	<path fill="#008BCE" d="M371.101,405.333c0-0.106,0.65-0.417,1.373-0.417c0.953,0,1.994,0.438,2.227,2.149
		c0.516-1.449,1.557-2.305,3.084-2.305c1.477,0,2.354,0.827,2.354,2.121c0,1.449-1.109,1.966-1.166,1.916
		c-0.389-0.36-0.963-0.622-1.654-0.622c-1.789,0-2.568,1.556-2.568,4.094v3.783c0,1.322-0.672,1.739-1.604,1.739h-0.389
		c-0.984,0-1.656-0.389-1.656-1.739V405.333L371.101,405.333z"/>
	<path fill="#008BCE" d="M387.683,415.147c2.021,0,3.521-1.577,3.521-3.727c0-2.199-1.479-3.804-3.521-3.804
		s-3.551,1.576-3.551,3.754C384.132,413.563,385.64,415.147,387.683,415.147 M387.71,404.76c3.988,0,6.732,2.715,6.732,6.653
		s-2.744,6.604-6.789,6.604c-4.016,0-6.73-2.665-6.73-6.653C380.923,407.482,383.695,404.76,387.71,404.76"/>
	<path fill="#008BCE" d="M396.769,413.719c0.877,0.934,2.305,1.684,4.172,1.684c1.42,0,2.227-0.418,2.227-1.217
		c0-0.954-1.012-1.11-2.723-1.478c-1.732-0.389-4.453-0.962-4.453-3.832c0-2.461,2.07-4.095,5.281-4.095
		c3.416,0,5.127,1.245,5.127,2.694c0,0.954-1.111,1.634-1.189,1.556c-0.855-0.983-2.227-1.683-3.705-1.683
		c-1.371,0-2.148,0.438-2.148,1.244c0,0.905,1.012,1.039,2.693,1.421c1.789,0.39,4.66,0.983,4.66,3.861
		c0,2.538-2.1,4.094-5.564,4.094c-3.705,0-5.488-1.294-5.488-2.743C395.658,414.292,396.699,413.641,396.769,413.719"/>
	<path fill="#008BCE" d="M409.177,413.719c0.877,0.934,2.307,1.684,4.172,1.684c1.43,0,2.229-0.418,2.229-1.217
		c0-0.954-1.012-1.11-2.723-1.478c-1.732-0.389-4.455-0.962-4.455-3.832c0-2.461,2.072-4.095,5.281-4.095
		c3.416,0,5.127,1.245,5.127,2.694c0,0.954-1.109,1.634-1.188,1.556c-0.855-0.983-2.227-1.683-3.705-1.683
		c-1.371,0-2.15,0.438-2.15,1.244c0,0.905,1.012,1.039,2.695,1.421c1.789,0.39,4.658,0.983,4.658,3.861
		c0,2.538-2.1,4.094-5.564,4.094c-3.705,0-5.486-1.294-5.486-2.743C408.06,414.292,409.101,413.641,409.177,413.719"/>
	<path fill="#008BCE" d="M240.25,412.736c1.011,1.216,2.927,2.305,4.999,2.305c1.994,0,3.054-0.749,3.054-2.05
		c0-1.499-1.683-1.732-3.655-2.171c-2.694-0.594-5.438-1.634-5.438-5.049c0-3.111,2.51-5.183,6.555-5.183s6.01,1.633,6.01,3.055
		c0,1.188-1.449,2.071-1.527,1.993c-0.983-1.166-2.666-2.071-4.455-2.071c-1.838,0-2.899,0.777-2.899,1.994
		c0,1.449,1.506,1.576,3.571,2.043c3.034,0.672,5.671,1.944,5.671,5.099c0,3.344-2.432,5.31-6.866,5.31
		c-4.455,0-6.477-1.838-6.477-3.365C238.794,413.592,240.116,412.637,240.25,412.736"/>
	<path fill="#008BCE" d="M260.473,415.147c2.022,0,3.521-1.577,3.521-3.727c0-2.199-1.478-3.804-3.521-3.804
		s-3.549,1.576-3.549,3.754C256.923,413.563,258.429,415.147,260.473,415.147 M260.501,404.76c3.988,0,6.731,2.715,6.731,6.653
		s-2.744,6.604-6.788,6.604c-4.016,0-6.731-2.665-6.731-6.653C253.713,407.482,256.485,404.76,260.501,404.76"/>
</g>
</svg>
