<svg xmlns="http://www.w3.org/2000/svg" width="12" height="10" viewBox="0 0 12 10">
    <g fill="none" fill-rule="evenodd">
        <g fill="#007db9">
            <g>
                <g>
                    <path d="M16 6.366C16 5.612 15.38 5 14.615 5c-.433 0-.82.197-1.074.504L8.549 11.55 6.402 9.257c-.254-.27-.615-.44-1.017-.44C4.62 8.818 4 9.429 4 10.184c0 .358.14.682.368.926l3.23 3.452v-.001c.254.27.615.44 1.017.44.433 0 .82-.197 1.074-.504l6-7.268c.194-.235.31-.535.31-.862H16z" transform="translate(-482 -796) translate(478 790) translate(0 1)"/>
                </g>
            </g>
        </g>
    </g>
</svg>
