<svg xmlns="http://www.w3.org/2000/svg" width="15" height="15" viewBox="0 0 15 15">
    <g fill="none" fill-rule="evenodd">
        <g fill="#007DB9">
            <g>
                <g>
                    <path d="M13.41 1.33h-.854V2.5c0 .594-.48 1.076-1.074 1.076h-.07c-.594 0-1.075-.482-1.075-1.075V1.329H4.51v1.172c0 .593-.481 1.075-1.075 1.075h-.07c-.593 0-1.075-.482-1.075-1.075V1.329H1.41c-.778 0-1.41.631-1.41 1.41v10.765c0 .778.632 1.41 1.41 1.41h10.143c.166 0 .325-.07.438-.19l2.67-2.879c.102-.111.16-.256.16-.407v-8.7c0-.778-.632-1.409-1.41-1.409zm-1.56 12.464v-1.529c0-.29.236-.527.527-.527h1.425l-1.952 2.056zm2.087-2.938h-1.56c-.777 0-1.41.632-1.41 1.41v1.766H1.41c-.291 0-.528-.237-.528-.528V5.108h13.055v5.748z" transform="translate(-282 -458) translate(272 445) translate(10 13)"/>
                    <path d="M3.014 8.923H4.65c.354 0 .641-.389.641-.869v-.902c0-.48-.287-.869-.64-.869H3.013c-.354 0-.64.39-.64.87v.901c0 .48.286.87.64.87zM6.605 8.923h1.637c.354 0 .641-.389.641-.869v-.902c0-.48-.287-.869-.64-.869H6.604c-.353 0-.64.39-.64.87v.901c0 .48.287.87.64.87zM10.198 8.923h1.638c.353 0 .64-.389.64-.869v-.902c0-.48-.287-.869-.64-.869h-1.638c-.354 0-.64.39-.64.87v.901c0 .48.286.87.64.87zM3.014 12.478H4.65c.354 0 .641-.39.641-.87v-.901c0-.48-.287-.87-.64-.87H3.013c-.354 0-.64.39-.64.87v.902c0 .48.286.869.64.869zM6.605 12.478h1.637c.354 0 .641-.39.641-.87v-.901c0-.48-.287-.87-.64-.87H6.604c-.353 0-.64.39-.64.87v.902c0 .48.287.869.64.869zM3.367 3.114h.07c.338 0 .613-.276.613-.613V.736c0-.339-.275-.613-.614-.613h-.07c-.338 0-.613.275-.613.613V2.5c0 .338.276.614.614.614zM11.412 3.114h.07c.339 0 .613-.276.613-.613V.736c0-.339-.275-.613-.613-.613h-.07c-.339 0-.613.275-.613.613V2.5c0 .338.275.614.613.614z" transform="translate(-282 -458) translate(272 445) translate(10 13)"/>
                </g>
            </g>
        </g>
    </g>
</svg>
