<?xml version="1.0" encoding="utf-8"?>
<!-- Generator: Adobe Illustrator 16.0.0, SVG Export Plug-In . SVG Version: 6.00 Build 0)  -->
<!DOCTYPE svg PUBLIC "-//W3C//DTD SVG 1.1//EN" "http://www.w3.org/Graphics/SVG/1.1/DTD/svg11.dtd">
<svg version="1.1" id="Layer_1" xmlns="http://www.w3.org/2000/svg" xmlns:xlink="http://www.w3.org/1999/xlink" x="0px" y="0px"
	 width="24px" height="26px" viewBox="0 0 24 26" enable-background="new 0 0 24 26" xml:space="preserve">
<g>
	<g>
		<g>
			<g>
				<path fill="#007DB9" d="M21.842,10.625c0.572,0,1.121-0.224,1.526-0.623C23.771,9.604,24,9.063,24,8.5V6.375
					c0-0.563-0.229-1.104-0.632-1.502c-0.405-0.399-0.954-0.623-1.526-0.623h-4.314V2.125c0-0.563-0.228-1.104-0.631-1.502
					C16.49,0.224,15.941,0,15.37,0H8.899C7.707,0,6.74,0.951,6.74,2.125V4.25H2.427c-1.192,0-2.158,0.951-2.158,2.125V8.5H0.27
					c0,0.563,0.227,1.104,0.632,1.502c0.404,0.399,0.953,0.623,1.525,0.623 M8.9,2.125h6.472V4.25H8.899L8.9,2.125L8.9,2.125z
					 M2.428,6.375h19.416V8.5H2.427V6.375H2.428z"/>
			</g>
		</g>
	</g>
</g>
</svg>
