<svg width="32" height="37" viewBox="0 0 32 37" xmlns="http://www.w3.org/2000/svg" xmlns:xlink="http://www.w3.org/1999/xlink">
    <defs>
        <path d="M2.285.044A2.28 2.28 0 0 0 0 2.32v31.846a2.28 2.28 0 0 0 2.285 2.273h27.422a2.278 2.278 0 0 0 2.285-2.273V10.249L21.7.044H2.285z" id="a"/>
        <path d="M.137 7.868a2.255 2.255 0 0 0 2.255 2.254h7.866L.137 0v7.868z" id="c"/>
        <path d="M13.542 0c-.48 0-.773.299-.773.816v4.848c0 .516.222.815.623.815h.23c.433 0 .654-.229.654-.677V4.051h1.876c.471 0 .682-.21.682-.598v-.03c0-.368-.21-.567-.682-.567h-1.917V1.254h2.66c.461 0 .683-.2.683-.607v-.06c0-.378-.222-.587-.683-.587h-3.353zM6.696 0c-.452 0-.783.299-.783.816v4.817c0 .448.361.806.823.806h1.557c2.188 0 3.543-1.244 3.543-3.244C11.836 1.205 10.52 0 8.34 0H6.696zm.682 1.254h.924c1.276 0 2.058.717 2.058 1.95 0 1.255-.782 1.981-2.079 1.981h-.903V1.254zM.773 0C.291 0 0 .299 0 .816v4.995c0 .439.23.668.622.668h.22c.424 0 .644-.249.644-.668V4.35h.984c1.756 0 2.67-.736 2.67-2.17C5.14.757 4.185 0 2.47 0H.773zm.693 1.144h.973c.823 0 1.255.368 1.255 1.045 0 .677-.432 1.055-1.245 1.055h-.983v-2.1z" id="e"/>
    </defs>
    <g fill="none" fill-rule="evenodd">
        <g>
            <mask id="b" fill="#fff">
                <use xlink:href="#a"/>
            </mask>
            <path fill="#F8B60D" mask="url(#b)" d="M-3.81 40.268h39.611V-3.783h-39.61z"/>
        </g>
        <g transform="translate(21.742)">
            <mask id="d" fill="#fff">
                <use xlink:href="#c"/>
            </mask>
            <path fill="#C89104" mask="url(#d)" d="M-3.737 13.995h17.869V-3.873H-3.737z"/>
        </g>
        <g transform="translate(7.809 15.923)">
            <mask id="f" fill="#fff">
                <use xlink:href="#e"/>
            </mask>
            <path fill="#FFF" mask="url(#f)" d="M-3.861 10.307h25.3V-3.828h-25.3z"/>
        </g>
    </g>
</svg>
