<svg xmlns="http://www.w3.org/2000/svg" width="12" height="12" viewBox="0 0 12 12">
    <g fill="none" fill-rule="evenodd">
        <g fill="#FFFFFF" fill-rule="nonzero">
            <g>
                <g>
                    <g>
                        <g>
                            <path d="M5 1v10c0 .552.448 1 1 1s1-.448 1-1V1c0-.552-.448-1-1-1S5 .448 5 1z" transform="translate(-892 -548) translate(850 130) translate(0 285) translate(16 117) translate(26 16)"/>
                            <path d="M5 1v10c0 .552.448 1 1 1s1-.448 1-1V1c0-.552-.448-1-1-1S5 .448 5 1z" transform="translate(-892 -548) translate(850 130) translate(0 285) translate(16 117) translate(26 16) rotate(90 6 6)"/>
                        </g>
                    </g>
                </g>
            </g>
        </g>
    </g>
</svg>
