<?xml version="1.0" encoding="utf-8"?>
<!-- Generator: Adobe Illustrator 16.0.0, SVG Export Plug-In . SVG Version: 6.00 Build 0)  -->
<!DOCTYPE svg PUBLIC "-//W3C//DTD SVG 1.1//EN" "http://www.w3.org/Graphics/SVG/1.1/DTD/svg11.dtd">
<svg version="1.1" id="Layer_1" xmlns="http://www.w3.org/2000/svg" xmlns:xlink="http://www.w3.org/1999/xlink" x="0px" y="0px"
	 width="24px" height="26px" viewBox="0 0 24 26" enable-background="new 0 0 24 26" xml:space="preserve">
<g>
	<g>
		<g>
			<g>
				<path fill="#007DB9" d="M2.427,21.25c0,1.127,0.455,2.208,1.264,3.005C4.5,25.051,5.598,25.5,6.741,25.5h10.786
					c1.145,0,2.242-0.448,3.051-1.245c0.811-0.797,1.264-1.878,1.264-3.005L21.844,8.5H2.427V21.25z M19.686,21.25
					c0,0.563-0.228,1.104-0.633,1.502c-0.404,0.398-0.953,0.623-1.525,0.623H6.742c-1.192,0-2.158-0.951-2.158-2.125V10.625h15.102
					V21.25z"/>
				<path fill="#007DB9" d="M7.82,21.25c0.287,0,0.56-0.111,0.763-0.311c0.202-0.2,0.316-0.471,0.316-0.752v-6.375
					c0-0.587-0.483-1.063-1.079-1.063c-0.596,0-1.078,0.475-1.078,1.063v6.375c0,0.282,0.113,0.552,0.316,0.752
					C7.26,21.139,7.534,21.25,7.82,21.25z M12.135,21.25c0.286,0,0.561-0.111,0.762-0.311c0.203-0.2,0.316-0.471,0.316-0.752v-6.375
					c0-0.587-0.482-1.063-1.078-1.063s-1.079,0.475-1.079,1.063v6.375c0,0.282,0.114,0.552,0.316,0.752
					C11.574,21.139,11.848,21.25,12.135,21.25z M16.45,21.25c0.286,0,0.56-0.111,0.762-0.311c0.202-0.2,0.315-0.471,0.315-0.752
					v-6.375c0-0.587-0.481-1.063-1.078-1.063c-0.596,0-1.078,0.475-1.078,1.063v6.375c0,0.282,0.113,0.552,0.316,0.752
					C15.889,21.139,16.163,21.25,16.45,21.25L16.45,21.25z"/>
			</g>
		</g>
	</g>
</g>
</svg>
