<svg width="32" height="37" viewBox="0 0 32 37" xmlns="http://www.w3.org/2000/svg" xmlns:xlink="http://www.w3.org/1999/xlink">
    <defs>
        <path d="M2.285.044A2.28 2.28 0 0 0 0 2.32v31.846a2.28 2.28 0 0 0 2.285 2.273h27.422a2.278 2.278 0 0 0 2.285-2.273V10.249L21.7.044H2.285z" id="a"/>
        <path d="M.137 7.868a2.255 2.255 0 0 0 2.255 2.254h7.866L.137 0v7.868z" id="c"/>
    </defs>
    <g fill="none" fill-rule="evenodd">
        <g>
            <mask id="b" fill="#fff">
                <use xlink:href="#a"/>
            </mask>
            <path fill="#F8B60D" mask="url(#b)" d="M-3.81 40.268h39.611V-3.783h-39.61z"/>
        </g>
        <g transform="translate(21.742)">
            <mask id="d" fill="#fff">
                <use xlink:href="#c"/>
            </mask>
            <path fill="#C89104" mask="url(#d)" d="M-3.737 13.995h17.869V-3.873H-3.737z"/>
        </g>
        <path d="M9.825 22.63c1.53 0 2.3-.79 2.3-2.49v-3.48c0-.45-.22-.67-.64-.67h-.21c-.41 0-.62.22-.62.67v3.46c0 .92-.29 1.26-1.01 1.26-.5 0-.91-.26-1.17-.66-.02-.04-.56.21-.56.76 0 .63.72 1.15 1.91 1.15zm4.29-.09c.42 0 .64-.25.64-.67V20.4h.98c1.75 0 2.66-.74 2.66-2.18 0-1.43-.95-2.19-2.66-2.19h-1.69c-.48 0-.77.3-.77.82v5.02c0 .44.23.67.62.67h.22zm1.6-3.25h-.98v-2.11h.97c.82 0 1.25.37 1.25 1.05s-.43 1.06-1.24 1.06zm6.31 3.32c.94 0 1.63-.34 2.01-.9.06.67.41.83.77.83.27 0 .49-.1.49-.14v-2.74c.01-.46-.15-.7-.61-.7h-1.83c-.47 0-.71.11-.71.53v.06c0 .4.24.53.71.53h1.15v.17c-.09.74-.74 1.23-1.65 1.23-1.16 0-1.9-.88-1.9-2.16 0-1.29.84-2.16 1.99-2.16.65 0 1.3.3 1.67.85.04.05.76-.12.76-.7 0-.67-.91-1.41-2.5-1.41-2.04 0-3.42 1.4-3.42 3.37 0 1.94 1.2 3.34 3.07 3.34z" fill="#FFF" fill-rule="nonzero"/>
    </g>
</svg>
