<svg xmlns="http://www.w3.org/2000/svg" width="12" height="10" viewBox="0 0 12 10">
    <g fill="none" fill-rule="evenodd">
        <g fill="#FFF">
            <g>
                <g>
                    <g>
                        <path d="M12 5.366C12 4.612 11.38 4 10.615 4c-.433 0-.82.197-1.074.504L4.549 10.55 2.402 8.257c-.254-.27-.615-.44-1.017-.44C.62 7.818 0 8.429 0 9.184c0 .358.14.682.368.926l3.23 3.452v-.001c.254.27.615.44 1.017.44.433 0 .82-.197 1.074-.504l6-7.268c.194-.235.31-.535.31-.862H12z" transform="translate(-1088 -342) translate(850 130) translate(227 203) translate(11 5)"/>
                    </g>
                </g>
            </g>
        </g>
    </g>
</svg>
