<svg xmlns="http://www.w3.org/2000/svg" width="41" height="41" viewBox="0 0 41 41">
    <g fill="none" fill-rule="evenodd">
        <g>
            <g transform="translate(-580 -167) translate(581 168)">
                <circle cx="19.5" cy="19.5" r="19.5" fill="#4FA93C" stroke="#4FA93C" stroke-width="1.5"/>
                <path fill="#FFF" d="M27.692 12c-.722 0-1.366.322-1.79.825l-8.32 9.895-3.578-3.754c-.424-.44-1.026-.719-1.696-.719-1.275 0-2.308 1-2.308 2.235 0 .585.234 1.115.614 1.514l5.382 5.649c.424.44 1.026.719 1.696.719.722 0 1.366-.322 1.79-.825l10-11.893c.324-.385.518-.876.518-1.41C30 13 28.967 12 27.692 12z"/>
            </g>
        </g>
    </g>
</svg>
