<svg width="64" height="73" viewBox="0 0 64 73" xmlns="http://www.w3.org/2000/svg" xmlns:xlink="http://www.w3.org/1999/xlink">
    <defs>
        <path d="M4.57.089C2.048.089 0 2.125 0 4.639v63.692c0 2.513 2.048 4.548 4.57 4.548h54.845c2.523 0 4.568-2.035 4.568-4.548V20.498L43.401.088H4.57z" id="a"/>
        <path d="M.273 15.737a4.51 4.51 0 0 0 4.51 4.507h15.734L.273 0v15.737z" id="c"/>
    </defs>
    <g fill="none" fill-rule="evenodd">
        <mask id="b" fill="#fff">
            <use xlink:href="#a"/>
        </mask>
        <path fill="#F8B60D" mask="url(#b)" d="M-7.619 80.536h79.221V-7.567H-7.619z"/>
        <g transform="translate(43.483)">
            <mask id="d" fill="#fff">
                <use xlink:href="#c"/>
            </mask>
            <path fill="#C89104" mask="url(#d)" d="M-7.473 27.99h35.736V-7.747H-7.473z"/>
        </g>
        <path d="M10.89 43c4.36 0 7.04-2.5 7.04-6.52 0-4-2.62-6.42-6.94-6.42H7.71c-.88 0-1.54.6-1.54 1.64v9.68c0 .88.72 1.62 1.64 1.62h3.08zm-.02-2.52H9.09v-7.9h1.82c2.54 0 4.08 1.42 4.08 3.92 0 2.54-1.56 3.98-4.12 3.98zm15.14 2.8c3.9 0 6.66-2.8 6.66-6.76s-2.74-6.74-6.64-6.74c-3.88 0-6.68 2.82-6.68 6.76 0 3.96 2.74 6.74 6.66 6.74zm.02-2.62c-2.22 0-3.74-1.68-3.74-4.14 0-2.48 1.5-4.12 3.72-4.12 2.2 0 3.74 1.7 3.74 4.14 0 2.46-1.52 4.12-3.72 4.12zm14.7 2.62c1.78 0 3.06-.52 3.9-1.16.84-.64 1.24-1.42 1.24-1.98 0-1.3-1.72-1.6-1.76-1.48-.5 1.2-1.7 1.94-3.2 1.94-2.16 0-3.76-1.66-3.76-4.08 0-2.44 1.56-4.06 3.72-4.06 1.32 0 2.52.62 3.16 1.76.04.1 1.7-.2 1.7-1.5 0-.54-.38-1.26-1.18-1.86-.82-.6-2.06-1.08-3.78-1.08-3.94 0-6.66 2.82-6.66 6.76 0 3.96 2.7 6.74 6.62 6.74zm7.74-.14c.54 0 1.08-.26 1.54-1.06l2.58-3.8 2.56 3.78c.42.76 1.04 1.04 1.62 1.04 1.04 0 1.92-.94 1.8-1.12l-3.94-5.42 3.94-5.46c.12-.2-.76-1.14-1.76-1.14-.56 0-1.14.32-1.54 1.04l-2.58 3.78-2.46-3.76c-.44-.74-.98-1.04-1.6-1.04-1.06 0-1.96.94-1.84 1.14l3.88 5.42L46.71 42c-.12.2.74 1.14 1.76 1.14z" fill="#FFF" fill-rule="nonzero"/>
    </g>
</svg>
