<svg xmlns="http://www.w3.org/2000/svg" width="16" height="17" viewBox="0 0 16 17">
    <g fill="none" fill-rule="evenodd">
        <g fill="#007DB9">
            <path d="M.18 5.667c0 .375.151.736.421 1.001.27.266.636.415 1.017.415v7.084c0 .75.303 1.472.843 2.003C3 16.7 3.73 17 4.494 17h7.191c.763 0 1.495-.299 2.034-.83.54-.531.843-1.252.843-2.003V7.083c.38 0 .747-.15 1.016-.415.27-.265.422-.626.422-1.001V4.25c0-.376-.152-.736-.422-1.002-.27-.265-.635-.415-1.016-.415h-2.877V1.417c0-.376-.151-.736-.421-1.002S10.628 0 10.247 0H5.932c-.794 0-1.438.634-1.438 1.417v1.416H1.618C.824 2.833.18 3.468.18 4.25v1.417zm12.944 8.5c0 .375-.152.736-.422 1.001-.27.266-.635.415-1.017.415h-7.19c-.795 0-1.439-.634-1.439-1.416V7.083h10.068v7.084zM5.933 1.417h4.314v1.416H5.933V1.417zM1.618 4.25h12.944v1.417H1.618V4.25z"/>
            <path d="M5.213 14.167c.191 0 .374-.075.509-.208s.21-.313.21-.5v-4.25c0-.392-.321-.709-.719-.709-.397 0-.719.317-.719.708v4.25c0 .188.076.368.211.501s.317.208.508.208zM8.09 14.167c.19 0 .373-.075.508-.208s.211-.313.211-.5v-4.25c0-.392-.322-.709-.72-.709-.397 0-.718.317-.718.708v4.25c0 .188.076.368.21.501.135.133.318.208.509.208zM10.966 14.167c.191 0 .374-.075.509-.208s.21-.313.21-.5v-4.25c0-.392-.321-.709-.719-.709-.397 0-.719.317-.719.708v4.25c0 .188.076.368.21.501.136.133.318.208.51.208z"/>
        </g>
    </g>
</svg>
