<svg xmlns="http://www.w3.org/2000/svg" xmlns:xlink="http://www.w3.org/1999/xlink" width="64" height="74" viewBox="0 0 64 74">
    <defs>
        <path id="w8oaqib11a" d="M4.57.089C2.048.089 0 2.125 0 4.639v63.692c0 2.513 2.048 4.548 4.57 4.548h54.845c2.523 0 4.568-2.035 4.568-4.548V20.498L43.401.088H4.57z"/>
        <path id="q81fj1rbxc" d="M.273 15.737c0 2.486 2.02 4.507 4.51 4.507h15.734L.273 0v15.737z"/>
        <path id="v8xhy6kple" d="M27.084 0c-.962 0-1.546.597-1.546 1.632v9.695c0 1.034.444 1.63 1.245 1.63h.462c.865 0 1.307-.457 1.307-1.353V8.101h3.753c.942 0 1.363-.42 1.363-1.194v-.06c0-.736-.421-1.134-1.363-1.134H28.47V2.508h5.32c.922 0 1.366-.398 1.366-1.214v-.12C35.156.418 34.712 0 33.79 0h-6.706zM13.392 0c-.904 0-1.566.597-1.566 1.632v9.634c0 .896.722 1.612 1.646 1.612h3.113c4.377 0 7.086-2.488 7.086-6.489 0-3.98-2.63-6.389-6.988-6.389h-3.291zm1.365 2.508h1.847c2.551 0 4.116 1.433 4.116 3.901 0 2.508-1.565 3.961-4.158 3.961h-1.805V2.508zM1.546 0C.582 0 0 .597 0 1.632v9.99c0 .878.462 1.336 1.245 1.336h.44c.846 0 1.286-.498 1.286-1.335V8.698H4.94c3.514 0 5.34-1.473 5.34-4.339C10.28 1.513 8.372 0 4.94 0H1.546zm1.387 2.289h1.946c1.645 0 2.51.735 2.51 2.09 0 1.353-.865 2.11-2.49 2.11H2.933v-4.2z"/>
    </defs>
    <g fill="none" fill-rule="evenodd">
        <g>
            <g>
                <g transform="translate(-256.000000, -38.000000) translate(256.000000, 38.500000)">
                    <mask id="mi1c2dxxsb" fill="#fff">
                        <use xlink:href="#w8oaqib11a"/>
                    </mask>
                    <path fill="#F8B60D" d="M-7.619 80.536L71.602 80.536 71.602 -7.567 -7.619 -7.567z" mask="url(#mi1c2dxxsb)"/>
                </g>
                <g transform="translate(-256.000000, -38.000000) translate(256.000000, 38.500000) translate(43.483254, 0.000000)">
                    <mask id="f7pjw8esdd" fill="#fff">
                        <use xlink:href="#q81fj1rbxc"/>
                    </mask>
                    <path fill="#C89104" d="M-7.473 27.99L28.263 27.99 28.263 -7.747 -7.473 -7.747z" mask="url(#f7pjw8esdd)"/>
                </g>
                <g transform="translate(-256.000000, -38.000000) translate(256.000000, 38.500000) translate(15.617225, 31.846890)">
                    <mask id="dpy7sbkpff" fill="#fff">
                        <use xlink:href="#v8xhy6kple"/>
                    </mask>
                    <path fill="#FFF" d="M-7.722 20.613L42.879 20.613 42.879 -7.656 -7.722 -7.656z" mask="url(#dpy7sbkpff)"/>
                </g>
            </g>
        </g>
    </g>
</svg>
