<svg xmlns="http://www.w3.org/2000/svg" width="12" height="10" viewBox="0 0 12 10">
    <g fill="none" fill-rule="evenodd">
        <g fill="#4fa93c">
            <g>
                <path d="M40 10.366C40 9.612 39.38 9 38.615 9c-.433 0-.82.197-1.074.504l-4.992 6.047-2.147-2.294c-.254-.27-.615-.44-1.017-.44-.765 0-1.385.611-1.385 1.366 0 .358.14.682.368.926l3.23 3.452v-.001c.254.27.615.44 1.017.44.433 0 .82-.197 1.074-.504l6-7.268c.194-.235.31-.535.31-.862H40z" transform="translate(-348 -170) translate(320 161)"/>
            </g>
        </g>
    </g>
</svg>
