<svg width="64" height="73" viewBox="0 0 64 73" xmlns="http://www.w3.org/2000/svg" xmlns:xlink="http://www.w3.org/1999/xlink">
    <defs>
        <path d="M4.57.089C2.048.089 0 2.125 0 4.639v63.692c0 2.513 2.048 4.548 4.57 4.548h54.845c2.523 0 4.568-2.035 4.568-4.548V20.498L43.401.088H4.57z" id="a"/>
        <path d="M.273 15.737a4.51 4.51 0 0 0 4.51 4.507h15.734L.273 0v15.737z" id="c"/>
    </defs>
    <g fill="none" fill-rule="evenodd">
        <mask id="b" fill="#fff">
            <use xlink:href="#a"/>
        </mask>
        <path fill="#F8B60D" mask="url(#b)" d="M-7.619 80.536h79.221V-7.567H-7.619z"/>
        <g transform="translate(43.483)">
            <mask id="d" fill="#fff">
                <use xlink:href="#c"/>
            </mask>
            <path fill="#C89104" mask="url(#d)" d="M-7.473 27.99h35.736V-7.747H-7.473z"/>
        </g>
        <path d="M16.34 45.08c.84 0 1.28-.5 1.28-1.34V40.8h1.96c3.5 0 5.32-1.48 5.32-4.36 0-2.86-1.9-4.38-5.32-4.38H16.2c-.96 0-1.54.6-1.54 1.64v10.04c0 .88.46 1.34 1.24 1.34h.44zm3.2-6.5h-1.96v-4.22h1.94c1.64 0 2.5.74 2.5 2.1s-.86 2.12-2.48 2.12zm8.4 6.5c.86 0 1.28-.46 1.28-1.34v-7.38l5.82 8c.42.52.64.72 1.42.72h.24c.78 0 1.26-.5 1.26-1.46v-10.3c0-.88-.42-1.34-1.24-1.34h-.28c-.84 0-1.26.46-1.26 1.34v7.2l-5.6-7.7c-.46-.58-.72-.84-1.5-.84h-.36c-.8 0-1.28.52-1.28 1.46v10.3c0 .88.42 1.34 1.22 1.34h.28zm18.06.14c1.88 0 3.26-.68 4.02-1.8.12 1.34.82 1.66 1.54 1.66.54 0 .98-.2.98-.28v-5.48c.02-.92-.3-1.4-1.22-1.4h-3.66c-.94 0-1.42.22-1.42 1.06v.12c0 .8.48 1.06 1.42 1.06h2.3v.34c-.18 1.48-1.48 2.46-3.3 2.46-2.32 0-3.8-1.76-3.8-4.32 0-2.58 1.68-4.32 3.98-4.32 1.3 0 2.6.6 3.34 1.7.08.1 1.52-.24 1.52-1.4 0-1.34-1.82-2.82-5-2.82-4.08 0-6.84 2.8-6.84 6.74 0 3.88 2.4 6.68 6.14 6.68z" fill="#FFF" fill-rule="nonzero"/>
    </g>
</svg>
