<svg xmlns="http://www.w3.org/2000/svg" width="176" height="44" viewBox="0 0 176 44">
    <g fill="none" fill-rule="evenodd">
        <g fill="#858585">
            <g>
                <path d="M52.332 25.924c0-.919.512-1.449 1.36-1.449h2.988c3.022 0 4.7 1.344 4.7 3.87 0 2.544-1.607 3.852-4.7 3.852h-1.733v2.6c0 .742-.388 1.183-1.132 1.183h-.387c-.688 0-1.096-.407-1.096-1.184v-8.872zm4.311 4.312c1.432 0 2.193-.67 2.193-1.873 0-1.202-.761-1.856-2.208-1.856h-1.715v3.729h1.73zM66.395 27.09c2.545 0 4.296 1.786 4.296 4.312v.178c-.018.441-.142.688-.601.688h-5.958c.179 1.292 1.168 2.05 2.51 2.05 1.307 0 2.032-.582 2.44-1.273.018-.034 1.202.126 1.202 1.113 0 .938-1.326 1.98-3.728 1.98-2.813 0-4.666-1.748-4.666-4.471 0-2.633 1.89-4.577 4.505-4.577zm1.98 3.729c-.053-1.2-.814-1.996-2.014-1.996-1.168 0-2.05.83-2.23 1.996h4.244zM72.616 29.229h-.423c-.708 0-1.044-.3-1.044-.867v-.157c0-.601.336-.92 1.044-.92h.423V26.19c0-.812.426-1.201 1.132-1.201h.213c.67 0 1.113.281 1.113 1.2v1.097h1.502c.706 0 1.008.3 1.008.883v.142c0 .601-.32.919-1.027.919H75.02v3.676c0 .847.283 1.273.956 1.273.512 0 .848-.246 1.113-.583.033-.055.601.281.601.971 0 .867-.866 1.573-2.28 1.573-1.908 0-2.793-1.008-2.793-2.951v-3.96zM82.584 25.589c0-.796.389-1.184 1.114-1.184h.354c.758 0 1.147.388 1.147 1.184v9.208c0 .777-.389 1.184-1.147 1.184h-.354c-.725 0-1.114-.407-1.114-1.184v-9.208zM86.837 27.48c0-.07.441-.284.937-.284.636 0 1.326.302 1.502 1.415.598-.884 1.502-1.52 2.846-1.52 2.242 0 3.198 1.591 3.198 3.571v4.135c0 .9-.459 1.182-1.097 1.182h-.265c-.67 0-1.13-.263-1.13-1.182v-3.765c0-1.15-.582-1.856-1.59-1.856-.885 0-1.555.46-1.91 1.132v4.49c0 .9-.459 1.18-1.097 1.18h-.263c-.672 0-1.131-.262-1.131-1.18V27.48zM97.377 33.206c.601.635 1.573 1.148 2.847 1.148.971 0 1.517-.281 1.517-.83 0-.654-.688-.759-1.854-1.008-1.184-.266-3.04-.654-3.04-2.616 0-1.677 1.415-2.79 3.605-2.79 2.334 0 3.5.848 3.5 1.837 0 .655-.76 1.114-.815 1.061-.582-.672-1.519-1.15-2.525-1.15-.937 0-1.468.302-1.468.848 0 .62.69.707 1.838.972 1.22.265 3.182.672 3.182 2.634 0 1.732-1.43 2.793-3.799 2.793-2.528 0-3.746-.885-3.746-1.875 0-.635.706-1.076.758-1.024M105.397 28.399c0-.9.46-1.202 1.096-1.202h.264c.654 0 1.131.283 1.131 1.202v3.799c0 1.147.583 1.857 1.627 1.857.83 0 1.5-.46 1.855-1.133V28.4c0-.9.46-1.202 1.113-1.202h.247c.673 0 1.132.283 1.132 1.202v7.3c0 .086-.423.28-.938.28-.617 0-1.307-.263-1.501-1.36-.602.885-1.483 1.52-2.828 1.52-2.261 0-3.198-1.59-3.198-3.568V28.4zM115.397 27.48c0-.07.44-.284.937-.284.654 0 1.36.302 1.518 1.468.355-.99 1.06-1.573 2.103-1.573 1.009 0 1.61.564 1.61 1.45 0 .989-.76 1.342-.796 1.307-.265-.246-.654-.423-1.131-.423-1.22 0-1.75 1.059-1.75 2.791v2.581c0 .9-.459 1.182-1.096 1.182h-.263c-.673 0-1.132-.263-1.132-1.182V27.48zM127.649 30.679h.283c0-1.114-.619-1.715-1.766-1.715-1.204 0-1.823.654-2.14 1.326 0 .035-1.607.087-1.607-1.06 0-1.08 1.27-2.14 3.904-2.14 2.723 0 4.064 1.24 4.064 3.552v5.11c0 .123-.46.28-.935.28-.795 0-1.326-.423-1.467-1.36-.62.9-1.715 1.431-2.988 1.431-1.802 0-2.899-1.024-2.899-2.491 0-1.98 1.77-2.88 5.55-2.933m-1.82 3.799c1.237 0 2.104-.814 2.104-1.943v-.496l-.46.018c-1.96.053-2.988.441-2.988 1.379 0 .635.513 1.042 1.345 1.042M131.983 27.454c0-.07.441-.283.937-.283.636 0 1.327.302 1.502 1.415.602-.884 1.502-1.52 2.844-1.52 2.244 0 3.2 1.591 3.2 3.57v4.136c0 .9-.459 1.181-1.098 1.181h-.264c-.67 0-1.129-.262-1.129-1.181v-3.765c0-1.15-.583-1.856-1.59-1.856-.886 0-1.555.459-1.91 1.132v4.489c0 .9-.46 1.181-1.098 1.181h-.262c-.672 0-1.132-.262-1.132-1.181v-7.318zM146.31 27.109c2.634 0 3.677 1.502 3.677 2.331 0 1.008-1.326 1.184-1.379 1.098-.335-.833-.971-1.43-2.192-1.43-1.36 0-2.35 1.041-2.35 2.49 0 1.484.99 2.545 2.35 2.545 1.184 0 1.857-.602 2.192-1.431.037-.108 1.38.052 1.38 1.113 0 .811-1.096 2.313-3.677 2.313-2.668 0-4.542-1.872-4.542-4.54 0-2.617 1.909-4.49 4.542-4.49M155.46 27.09c2.544 0 4.295 1.786 4.295 4.312v.179c-.018.44-.141.687-.6.687h-5.959c.179 1.292 1.169 2.05 2.511 2.05 1.307 0 2.032-.582 2.44-1.273.017-.033 1.201.127 1.201 1.114 0 .937-1.326 1.98-3.728 1.98-2.811 0-4.665-1.749-4.665-4.472 0-2.63 1.89-4.576 4.505-4.576zm1.98 3.73c-.053-1.2-.815-1.996-2.014-1.996-1.168 0-2.051.83-2.23 1.995h4.244zM72.769 12.003c0-.903.46-1.204 1.097-1.204h.266c.655 0 1.133.284 1.133 1.204v3.808c0 1.15.585 1.859 1.63 1.859.832 0 1.505-.46 1.86-1.134v-4.533c0-.903.46-1.204 1.115-1.204h.247c.674 0 1.134.284 1.134 1.204v7.314c0 .088-.425.283-.938.283-.62 0-1.311-.265-1.506-1.363-.603.885-1.487 1.523-2.834 1.523-2.266 0-3.204-1.594-3.204-3.577v-4.18zM83.906 12.835h-.425c-.708 0-1.044-.301-1.044-.867v-.16c0-.602.336-.92 1.044-.92h.425V9.79c0-.815.426-1.204 1.134-1.204h.213c.672 0 1.115.283 1.115 1.204v1.098h1.505c.708 0 1.01.301 1.01.885v.142c0 .602-.319.92-1.027.92h-1.541v3.684c0 .85.283 1.276.956 1.276.514 0 .85-.25 1.116-.585.035-.053.602.283.602.974 0 .866-.868 1.575-2.284 1.575-1.913 0-2.799-1.009-2.799-2.958v-3.966zM90.246 7.505c0-.089.442-.283.938-.283.744 0 1.559.39 1.559 2.002v3.045c.548-.903 1.434-1.576 2.797-1.576 2.25 0 3.206 1.628 3.206 3.648v4.073c0 .903-.461 1.186-1.098 1.186h-.266c-.672 0-1.133-.265-1.133-1.186v-3.719c0-1.204-.602-1.913-1.576-1.913-1.186 0-1.93.78-1.93 2.019v3.613c0 .903-.46 1.186-1.098 1.186h-.265c-.674 0-1.134-.265-1.134-1.186V7.505zM104.5 10.693c2.55 0 4.303 1.788 4.303 4.32v.178c-.018.443-.142.69-.603.69h-5.967c.177 1.293 1.168 2.054 2.514 2.054 1.312 0 2.037-.584 2.443-1.275.019-.035 1.205.125 1.205 1.116 0 .939-1.328 1.984-3.736 1.984-2.816 0-4.676-1.753-4.676-4.481 0-2.639 1.895-4.586 4.516-4.586zm1.984 3.737c-.055-1.205-.817-2.002-2.02-2.002-1.17 0-2.054.832-2.231 2.002h4.25zM110.077 11.082c0-.07.443-.283.939-.283.654 0 1.363.301 1.522 1.47.354-.992 1.063-1.576 2.107-1.576 1.01 0 1.612.566 1.612 1.452 0 .992-.761 1.346-.797 1.31-.266-.247-.655-.425-1.133-.425-1.222 0-1.754 1.063-1.754 2.798v2.585c0 .903-.46 1.188-1.096 1.188h-.266c-.674 0-1.134-.267-1.134-1.188v-7.33zM117.468 11.082c0-.07.442-.283.938-.283.638 0 1.329.301 1.506 1.417.601-.886 1.505-1.523 2.85-1.523 2.25 0 3.206 1.594 3.206 3.577v4.143c0 .903-.46 1.188-1.098 1.188h-.265c-.674 0-1.134-.267-1.134-1.188v-3.771c0-1.151-.584-1.86-1.594-1.86-.885 0-1.558.46-1.912 1.134v4.497c0 .903-.46 1.188-1.097 1.188h-.266c-.674 0-1.134-.267-1.134-1.188v-7.33zM136.717 7.842c3.046 0 4.409 1.664 4.409 2.585 0 1.133-1.47 1.417-1.504 1.328-.567-.992-1.647-1.558-2.798-1.558-1.93 0-3.33 1.453-3.33 3.594 0 2.126 1.418 3.613 3.347 3.613 1.328 0 2.409-.655 2.851-1.736.036-.088 1.558.196 1.558 1.33 0 .973-1.416 2.761-4.568 2.761-3.471 0-5.879-2.443-5.879-5.95 0-3.488 2.408-5.967 5.914-5.967M142.559 11.082c0-.07.443-.283.938-.283.655 0 1.364.301 1.523 1.47.354-.992 1.063-1.576 2.107-1.576 1.01 0 1.612.566 1.612 1.452 0 .992-.761 1.346-.797 1.31-.266-.247-.656-.425-1.134-.425-1.221 0-1.753 1.063-1.753 2.798v2.585c0 .903-.46 1.188-1.097 1.188h-.266c-.673 0-1.133-.267-1.133-1.188v-7.33zM153.916 10.693c2.728 0 4.605 1.859 4.605 4.55 0 2.692-1.877 4.517-4.64 4.517-2.745 0-4.605-1.825-4.605-4.551 0-2.657 1.895-4.516 4.64-4.516m-.018 7.101c1.382 0 2.409-1.08 2.409-2.55 0-1.506-1.01-2.604-2.409-2.604-1.399 0-2.425 1.081-2.425 2.569 0 1.505 1.026 2.585 2.425 2.585M160.114 16.82c.601.637 1.576 1.151 2.85 1.151.974 0 1.524-.284 1.524-.833 0-.654-.692-.761-1.86-1.009-1.187-.265-3.046-.655-3.046-2.62 0-1.683 1.417-2.799 3.613-2.799 2.337 0 3.506.85 3.506 1.842 0 .655-.762 1.116-.815 1.063-.584-.673-1.523-1.152-2.532-1.152-.938 0-1.47.302-1.47.85 0 .62.691.71 1.842.975 1.222.265 3.187.672 3.187 2.638 0 1.736-1.433 2.797-3.807 2.797-2.533 0-3.754-.884-3.754-1.877 0-.637.71-1.079.762-1.026M168.595 16.82c.602.637 1.577 1.151 2.85 1.151.976 0 1.524-.284 1.524-.833 0-.654-.691-.761-1.86-1.009-1.186-.265-3.046-.655-3.046-2.62 0-1.683 1.418-2.799 3.613-2.799 2.338 0 3.506.85 3.506 1.842 0 .655-.76 1.116-.814 1.063-.584-.673-1.522-1.152-2.532-1.152-.939 0-1.47.302-1.47.85 0 .62.691.71 1.843.975 1.22.265 3.186.672 3.186 2.638 0 1.736-1.433 2.797-3.808 2.797-2.532 0-3.753-.884-3.753-1.877 0-.637.709-1.079.761-1.026M53.078 16.147c.69.832 2.001 1.576 3.417 1.576 1.364 0 2.09-.514 2.09-1.4 0-1.026-1.151-1.186-2.497-1.486-1.842-.407-3.719-1.116-3.719-3.454 0-2.125 1.718-3.542 4.48-3.542 2.763 0 4.11 1.116 4.11 2.09 0 .815-.992 1.417-1.046 1.364-.673-.798-1.823-1.417-3.046-1.417-1.257 0-1.984.532-1.984 1.364 0 .991 1.028 1.08 2.444 1.399 2.072.46 3.879 1.328 3.879 3.488 0 2.285-1.665 3.63-4.693 3.63-3.045 0-4.427-1.257-4.427-2.302 0-.725.903-1.38.992-1.31M66.927 10.693c2.727 0 4.604 1.859 4.604 4.55 0 2.692-1.877 4.517-4.64 4.517-2.744 0-4.604-1.825-4.604-4.551 0-2.657 1.895-4.516 4.64-4.516m-.018 7.101c1.382 0 2.409-1.08 2.409-2.55 0-1.506-1.01-2.604-2.409-2.604-1.399 0-2.426 1.081-2.426 2.569 0 1.505 1.027 2.585 2.426 2.585M40.51 23.337c-2.243.01-4.057 1.825-4.066 4.068 0 .008-.005.013-.013.013-.006 0-.013-.005-.013-.013-.008-2.245-1.825-4.063-4.072-4.068-.008 0-.014-.007-.014-.013 0-.008.006-.015.014-.015 2.247-.004 4.064-1.822 4.072-4.068 0-.006.007-.013.013-.013.008 0 .013.007.013.013v.001c.01 2.242 1.823 4.059 4.066 4.067.008 0 .014.007.014.015 0 .006-.006.013-.014.013zm-12.16 0c-2.244.01-4.058 1.825-4.066 4.068 0 .008-.006.013-.012.013-.009 0-.015-.005-.015-.013-.008-2.245-1.826-4.063-4.072-4.068-.007 0-.013-.007-.013-.013 0-.008.006-.015.013-.015 2.246-.004 4.064-1.822 4.072-4.068 0-.006.006-.013.015-.013.006 0 .01.007.012.013v.001c.008 2.242 1.822 4.059 4.065 4.067.008 0 .014.007.014.015 0 .006-.006.013-.014.013zm2.04-10.15c.221 2.039 1.942 3.628 4.039 3.637h.001c.007 0 .013.005.013.013s-.006.013-.013.013h-.001c-2.243.01-4.057 1.827-4.065 4.068 0 .009-.005.014-.013.014-.007 0-.014-.005-.014-.014-.008-2.244-1.824-4.063-4.07-4.067-.01 0-.015-.006-.015-.014s.006-.014.014-.014c2.166-.004 3.934-1.697 4.063-3.831V0H13.187v13.187H0V30.33h13.187v13.187h17.142v-5.641c-.014-4.134-3.362-7.483-7.5-7.492v-.001c-.014 0-.024-.01-.024-.025 0-.014.01-.026.025-.026 4.137-.01 7.485-3.357 7.5-7.492 0-.013.011-.023.024-.023.013 0 .025.01.025.023v.002c.015 4.09 3.294 7.411 7.372 7.488h5.766V13.187H30.389z" transform="translate(-50 -21) translate(50 21)"/>
            </g>
        </g>
    </g>
</svg>
