<svg xmlns="http://www.w3.org/2000/svg" width="32" height="32" viewBox="0 0 32 32">
    <g fill="none" fill-rule="nonzero">
        <circle cx="16" cy="16" r="16" fill="#B5C50D"/>
        <g fill="#FFF">
            <path d="M9.259 11.76l5.734 4.542c.26.206.618.297.966.28.347.017.706-.073.966-.28l5.733-4.541c.46-.362.356-.659-.227-.659H9.488c-.583 0-.687.297-.23.659z"/>
            <path d="M23.073 12.959l-6.266 4.757a1.39 1.39 0 0 1-.847.258 1.394 1.394 0 0 1-.847-.258l-6.267-4.757c-.465-.353-.846-.164-.846.42v7.805c0 .583.478 1.061 1.061 1.061h13.796c.584 0 1.061-.478 1.061-1.061v-7.805c0-.584-.38-.773-.845-.42z"/>
        </g>
    </g>
</svg>
