<svg xmlns="http://www.w3.org/2000/svg" width="16" height="16" viewBox="0 0 16 16">
    <g fill="none" fill-rule="evenodd">
        <circle cx="8" cy="8" r="8" fill="#008BCE"/>
        <path fill="#FFF" d="M7.028 9.241C7.113 6.617 9.61 7 9.61 5.525c0-.809-.582-1.334-1.603-1.334-1.347 0-1.886.922-2.014 1.802C5.979 6.035 5 6.007 5 5.24 5 4.391 5.936 3 8.035 3 9.88 3 11 4.007 11 5.411c0 2.327-2.738 2-2.794 4-.029.213-.256.312-.582.312-.354 0-.61-.156-.596-.482zm-.24 2.44v-.17c0-.497.269-.78.765-.78h.199c.51 0 .78.283.78.78v.17c0 .496-.27.766-.78.766h-.199c-.496 0-.766-.27-.766-.766z"/>
    </g>
</svg>
