<svg xmlns="http://www.w3.org/2000/svg" width="16" height="16" viewBox="0 0 16 16">
    <g fill="none" fill-rule="evenodd">
        <circle cx="8" cy="8" r="8" fill="#008BCE"/>
        <path fill="#FFF" d="M7.047 10c.102-2.603 2.744-2.239 2.744-3.787 0-.872-.682-1.432-1.873-1.432-1.51 0-2.061.911-2.207 1.77-.014.052-.711-.04-.711-.52C5 5.38 5.842 4 7.947 4c1.743 0 2.817.924 2.817 2.134 0 2.122-2.904 1.797-2.904 3.918 0 .143-.174.221-.406.221-.247 0-.421-.078-.407-.273zm-.261 2.082v-.13c0-.364.232-.585.639-.585h.145c.42 0 .653.22.653.585v.13c0 .365-.232.573-.653.573h-.145c-.407 0-.64-.208-.64-.573z"/>
    </g>
</svg>
