<svg xmlns="http://www.w3.org/2000/svg" width="32" height="32" viewBox="0 0 32 32">
    <g fill="none" fill-rule="evenodd">
        <circle cx="16" cy="16" r="16" fill="#D92E43"/>
        <path fill="#FFF" fill-rule="nonzero" d="M16.13 17.98c.42 0 .6-.3.74-.9l.78-6.42c.24-1.12-.36-1.78-1.42-1.78h-.5c-1.02 0-1.62.66-1.38 1.78l.78 6.42c.14.6.32.9.7.9h.3zm.02 4.16c.92 0 1.36-.44 1.36-1.32v-.28c0-.88-.42-1.32-1.36-1.32h-.34c-.88 0-1.34.44-1.34 1.32v.28c0 .88.46 1.32 1.34 1.32h.34z"/>
    </g>
</svg>
