<svg xmlns="http://www.w3.org/2000/svg" width="33" height="32" viewBox="0 0 33 32">
    <g fill="none" transform="translate(.5)">
        <circle cx="16" cy="16" r="16" fill="#008BCE"/>
        <g fill="#FFF">
            <path d="M1.259.76l5.734 4.542c.26.206.618.297.966.28.347.017.706-.073.966-.28L14.658.761c.46-.362.356-.659-.227-.659H1.488c-.583 0-.687.297-.23.659z" transform="translate(8 10)"/>
            <path d="M15.073 1.959L8.807 6.716c-.234.176-.541.262-.847.258-.306.004-.613-.083-.847-.258L.846 1.959C.38 1.606 0 1.795 0 2.379v7.805c0 .583.478 1.061 1.061 1.061h13.796c.584 0 1.061-.478 1.061-1.061V2.379c0-.584-.38-.773-.845-.42z" transform="translate(8 10)"/>
        </g>
    </g>
</svg>
