<svg xmlns="http://www.w3.org/2000/svg" width="32" height="32" viewBox="0 0 32 32">
    <g fill="none" fill-rule="evenodd">
        <circle cx="16" cy="16" r="16" fill="#008BCE" fill-rule="nonzero"/>
        <g fill="#FFF">
            <path d="M21.232 9.106c0-.606-.496-1.102-1.102-1.102h-8.27c-.607 0-1.103.496-1.103 1.102v3.308h10.475V9.106z"/>
            <path fill-rule="nonzero" d="M22.335 12.966H9.655c-.938 0-1.655.717-1.655 1.654v4.962c0 .937.717 1.654 1.654 1.654h.551v-4.41h11.579v4.41h.551c.937 0 1.654-.717 1.654-1.654V14.62c0-.937-.717-1.654-1.654-1.654zm-1.654 2.757c-.33 0-.551-.221-.551-.552 0-.33.22-.551.551-.551.33 0 .551.22.551.551 0 .331-.22.552-.55.552z"/>
            <path fill-rule="nonzero" d="M10.757 21.787c0 .607.496 1.103 1.102 1.103h8.27c.607 0 1.103-.496 1.103-1.103v-4.41H10.757v4.41zm1.102-2.756h8.27v.551h-8.27v-.551zm0 1.654h8.27v.551h-8.27v-.551z"/>
        </g>
    </g>
</svg>
