<svg xmlns="http://www.w3.org/2000/svg" width="33" height="32" viewBox="0 0 33 32">
    <g fill="none" fill-rule="evenodd" transform="translate(.5)">
        <circle cx="16" cy="16" r="16" fill="#469F35" stroke="#469F35" stroke-width="1.5"/>
        <path fill="#FFF" d="M22.722 9.846c-.593 0-1.121.264-1.469.677l-6.826 8.119-2.937-3.08c-.347-.362-.841-.59-1.39-.59-1.047 0-1.895.82-1.895 1.834 0 .48.192.915.504 1.242l4.416 4.635c.348.362.841.59 1.391.59.593 0 1.121-.264 1.469-.677l8.206-9.758c.265-.316.424-.719.424-1.157 0-1.013-.847-1.835-1.893-1.835z"/>
    </g>
</svg>
