<svg xmlns="http://www.w3.org/2000/svg" width="18" height="15" viewBox="0 0 18 15">
    <g fill="none" fill-rule="evenodd">
        <g fill="#4FA93C">
            <g>
                <g>
                    <g>
                        <g>
                            <g>
                                <path d="M18 2.05C18 .917 17.07 0 15.923 0c-.65 0-1.23.295-1.611.756h-.001l-7.487 9.07-3.22-3.44h-.002c-.38-.405-.921-.66-1.525-.66C.93 5.726 0 6.643 0 7.775c0 .536.21 1.023.552 1.388l-.001.001 4.846 5.177.001-.001c.38.405.921.66 1.525.66.65 0 1.23-.295 1.61-.756h.001l9-10.901v-.001c.29-.352.466-.802.466-1.293z" transform="translate(-861 -1203) translate(200 515) translate(0 296) translate(0 338) translate(661 20) translate(0 34)"/>
                            </g>
                        </g>
                    </g>
                </g>
            </g>
        </g>
    </g>
</svg>
