<svg xmlns="http://www.w3.org/2000/svg" width="16" height="16" viewBox="0 0 16 16">
    <g fill="none" fill-rule="evenodd">
        <circle cx="8" cy="8" r="8" fill="#125687"/>
        <path fill="#FFF" stroke="#FFF" stroke-width=".2" d="M7.028 9.946c.085-2.5 2.582-2.135 2.582-3.54 0-.77-.582-1.27-1.603-1.27-1.347 0-1.886.878-2.014 1.715-.014.04-.993.014-.993-.716C5 5.325 5.936 4 8.035 4 9.88 4 11 4.96 11 6.297c0 2.217-2.738 1.906-2.794 3.811-.029.203-.256.297-.582.297-.354 0-.61-.148-.596-.46zm-.24 2.324v-.162c0-.473.269-.743.765-.743h.199c.51 0 .78.27.78.743v.162c0 .473-.27.73-.78.73h-.199c-.496 0-.766-.257-.766-.73z"/>
    </g>
</svg>
