<svg xmlns="http://www.w3.org/2000/svg" xmlns:xlink="http://www.w3.org/1999/xlink" viewBox="0 0 177 61"><defs><path id="a" d="M7.788.17v10.12H.11V.17h7.677z"/><path id="c" d="M5.774 9.625H.234v-9.5h5.54z"/><path id="e" d="M6.999 7.897H.036V.204H7z"/></defs><g fill="none" fill-rule="evenodd"><path fill="#3093CC" d="M42.483 24.854c-2.353.01-4.255 1.926-4.263 4.29v.001a.014.014 0 0 1-.014.014.014.014 0 0 1-.014-.014c-.008-2.368-1.915-4.285-4.27-4.29a.015.015 0 0 1-.015-.015c0-.008.007-.014.014-.015 2.356-.005 4.262-1.922 4.27-4.289.001-.008.007-.014.015-.014.007 0 .013.006.014.014.008 2.365 1.91 4.28 4.263 4.29.008 0 .014.006.014.014a.014.014 0 0 1-.014.014zm-12.753 0c-2.353.01-4.255 1.926-4.263 4.29v.001a.014.014 0 0 1-.014.014.014.014 0 0 1-.014-.014c-.009-2.368-1.915-4.285-4.27-4.29a.015.015 0 0 1-.015-.015c0-.008.006-.014.014-.015 2.356-.005 4.262-1.922 4.27-4.289.001-.008.007-.014.015-.014.007 0 .013.006.014.014.008 2.365 1.91 4.28 4.263 4.29.007 0 .014.006.014.014a.014.014 0 0 1-.014.014zm2.14-10.702c.232 2.15 2.037 3.826 4.236 3.834.008 0 .015.006.015.015a.014.014 0 0 1-.014.014c-2.353.009-4.256 1.925-4.264 4.29a.014.014 0 0 1-.014.014.014.014 0 0 1-.014-.014c-.008-2.367-1.914-4.285-4.27-4.29A.014.014 0 0 1 27.53 18c0-.009.006-.015.014-.015 2.272-.005 4.125-1.79 4.262-4.04V.246H13.829v13.906H0v18.076h13.83v13.905h17.977v-5.947c-.016-4.36-3.527-7.89-7.866-7.9v-.001a.026.026 0 0 1-.026-.027c0-.014.012-.027.026-.027 4.339-.01 7.85-3.54 7.866-7.9 0-.014.011-.025.025-.025.014 0 .026.01.026.025v.001c.016 4.315 3.455 7.815 7.731 7.896h6.046V14.152H31.87zM52.52 46.94c-.98 0-1.813-.14-2.5-.42-.688-.28-1.222-.62-1.603-1.016a2.547 2.547 0 0 1-.5-.668c-.102-.212-.153-.393-.153-.544 0-.109.03-.205.092-.287.06-.082.125-.15.194-.205a.603.603 0 0 1 .204-.113c.068-.02.108-.024.122-.01a3.943 3.943 0 0 0 1.399 1.631 4.24 4.24 0 0 0 1.184.544c.456.138.97.206 1.541.206 1.09 0 1.943-.244 2.563-.729.619-.486.929-1.146.929-1.981 0-.479-.106-.88-.317-1.2a2.612 2.612 0 0 0-.837-.801 4.887 4.887 0 0 0-1.204-.514 39.86 39.86 0 0 0-1.44-.38c-.504-.123-1-.263-1.49-.42a5.022 5.022 0 0 1-1.317-.637 2.997 2.997 0 0 1-.929-1.016c-.232-.41-.347-.93-.347-1.56 0-.52.109-.999.327-1.437a3.38 3.38 0 0 1 .908-1.13c.388-.314.84-.56 1.358-.738a5.184 5.184 0 0 1 1.694-.267c.899 0 1.657.13 2.277.39.62.26 1.099.554 1.44.882.38.41.57.767.57 1.068 0 .11-.03.21-.091.298a.802.802 0 0 1-.194.205.956.956 0 0 1-.204.112c-.068.028-.11.035-.123.022a3.428 3.428 0 0 0-.5-.791 3.227 3.227 0 0 0-.776-.667 4.22 4.22 0 0 0-1.051-.462 4.703 4.703 0 0 0-1.327-.174c-.477 0-.92.061-1.327.184-.409.123-.76.301-1.052.533a2.49 2.49 0 0 0-.684.842 2.455 2.455 0 0 0-.245 1.11c0 .45.092.824.276 1.118.183.295.435.54.756.739.319.199.696.36 1.132.482.436.124.912.247 1.43.37.53.123 1.051.27 1.561.442.51.17.97.396 1.378.677.409.28.736.633.98 1.058.246.424.368.957.368 1.6 0 .548-.105 1.047-.316 1.5a3.166 3.166 0 0 1-.909 1.148 4.427 4.427 0 0 1-1.409.74 5.906 5.906 0 0 1-1.837.267m10.841-.863a3.82 3.82 0 0 0 2.818-1.19c.353-.37.629-.812.826-1.325a4.568 4.568 0 0 0 .296-1.652 4.63 4.63 0 0 0-.296-1.673 4.137 4.137 0 0 0-.816-1.335 3.808 3.808 0 0 0-2.828-1.221c-.572 0-1.1.107-1.582.319a3.803 3.803 0 0 0-1.256.882c-.354.376-.63.818-.827 1.324a4.537 4.537 0 0 0-.296 1.663c0 .588.099 1.14.296 1.652.197.513.473.962.827 1.345s.773.681 1.256.893c.483.212 1.01.318 1.582.318m0 .863c-.722 0-1.385-.13-1.99-.39a4.738 4.738 0 0 1-1.562-1.068 4.863 4.863 0 0 1-1.021-1.601 5.387 5.387 0 0 1-.368-2.012c0-.726.122-1.396.368-2.012a4.857 4.857 0 0 1 1.02-1.6 4.6 4.6 0 0 1 1.562-1.058 5.107 5.107 0 0 1 1.99-.38c.722 0 1.382.13 1.981.39.6.26 1.116.616 1.552 1.067.436.452.776.989 1.021 1.611.245.623.367 1.298.367 2.023 0 .712-.122 1.375-.367 1.991a4.883 4.883 0 0 1-1.02 1.602 4.652 4.652 0 0 1-1.553 1.057 5.039 5.039 0 0 1-1.98.38m10.658-.001c-.64 0-1.202-.102-1.685-.308a3.127 3.127 0 0 1-1.205-.882 3.916 3.916 0 0 1-.725-1.365 6.002 6.002 0 0 1-.245-1.776v-5.173c0-.192.041-.318.123-.38a.493.493 0 0 1 .306-.093h.122c.123 0 .225.031.307.093.081.062.122.188.122.38v5.111c0 1.067.252 1.913.756 2.536.503.623 1.232.934 2.184.934.817 0 1.514-.206 2.093-.616a3.865 3.865 0 0 0 1.317-1.642v-6.323c0-.192.04-.318.122-.38a.494.494 0 0 1 .307-.093h.122c.123 0 .225.031.307.093.08.062.122.188.122.38v9.258c0 .014-.034.035-.102.062a.662.662 0 0 1-.245.04.57.57 0 0 1-.429-.194c-.122-.13-.184-.393-.184-.791v-.883a4.126 4.126 0 0 1-1.378 1.437c-.592.383-1.296.576-2.113.576m10.188-.001c-.858 0-1.494-.246-1.91-.738-.415-.493-.622-1.253-.622-2.28v-6.014h-1.184c-.19 0-.317-.034-.378-.103a.415.415 0 0 1-.092-.288v-.102c0-.123.031-.219.092-.287.061-.069.187-.103.378-.103h1.184v-1.889c0-.191.04-.321.123-.39a.457.457 0 0 1 .306-.102h.122a.42.42 0 0 1 .297.102c.074.069.112.199.112.39v1.889h2.797c.19 0 .32.034.387.103a.388.388 0 0 1 .102.287v.102c0 .123-.033.22-.102.288-.068.069-.197.103-.387.103h-2.797v5.912c0 .807.125 1.39.377 1.744.252.357.664.535 1.235.535.354 0 .66-.076.92-.225.258-.152.476-.357.652-.617.028-.013.089.018.184.092.096.076.143.209.143.401a.742.742 0 0 1-.072.287.968.968 0 0 1-.255.328c-.15.165-.356.302-.622.411-.266.11-.596.165-.99.165m3.571-.237c-.08-.06-.122-.188-.122-.38V32.92c0-.014.03-.034.093-.061a.567.567 0 0 1 .234-.042c.176 0 .33.062.46.185.128.123.194.384.194.78v5.154c.285-.63.728-1.14 1.326-1.53.6-.39 1.3-.585 2.103-.585.654 0 1.222.102 1.706.307.482.206.888.5 1.214.883.326.383.571.839.735 1.365a5.98 5.98 0 0 1 .245 1.776v5.173c0 .192-.04.32-.122.38a.49.49 0 0 1-.307.093h-.122a.489.489 0 0 1-.306-.093c-.082-.06-.123-.188-.123-.38v-5.111c0-1.081-.255-1.93-.766-2.546-.51-.616-1.249-.924-2.214-.924-.49 0-.94.082-1.348.247a3.201 3.201 0 0 0-1.062.688c-.3.294-.534.65-.704 1.067-.17.418-.255.887-.255 1.406v5.173c0 .192-.041.32-.123.38a.49.49 0 0 1-.306.093h-.122a.492.492 0 0 1-.308-.093m18.294-5.533a3.933 3.933 0 0 0-.285-1.417 3.582 3.582 0 0 0-.705-1.098 3.058 3.058 0 0 0-1.062-.72 3.54 3.54 0 0 0-1.358-.256c-.503 0-.97.086-1.398.257a3.7 3.7 0 0 0-1.144.719 3.868 3.868 0 0 0-.826 1.109c-.218.43-.361.9-.429 1.406h7.207zm-6.952 2.474c.197.5.473.93.827 1.293.354.362.772.644 1.256.842.482.198 1.01.297 1.582.297.503 0 .943-.058 1.317-.175.374-.115.7-.266.98-.45.279-.186.51-.394.694-.627.184-.233.337-.472.46-.718.013-.014.051-.014.111 0a.553.553 0 0 1 .195.092c.067.048.13.11.183.185a.498.498 0 0 1 .082.297c0 .11-.048.257-.142.442a2.622 2.622 0 0 1-.47.605c-.3.302-.739.579-1.318.832-.579.253-1.275.38-2.092.38a5.24 5.24 0 0 1-2.021-.38 4.545 4.545 0 0 1-1.562-1.048 4.681 4.681 0 0 1-1-1.59 5.52 5.52 0 0 1-.358-2.012c0-.725.123-1.4.368-2.023a4.955 4.955 0 0 1 1.01-1.611 4.679 4.679 0 0 1 3.44-1.457c.666 0 1.273.112 1.818.339.543.225 1.01.547 1.398.964.388.418.687.918.898 1.499.211.582.317 1.228.317 1.94v.102c0 .151-.034.247-.102.288-.068.041-.178.061-.326.061h-7.861c.013.59.119 1.133.316 1.633zm9.892 2.678v-9.258c0-.013.03-.034.093-.062a.577.577 0 0 1 .233-.041c.177 0 .327.066.45.196s.183.393.183.79v1.231c.205-.82.535-1.42.991-1.796.456-.376 1.011-.564 1.663-.564.395 0 .722.075.98.225.26.152.39.35.39.595 0 .193-.042.33-.123.411-.082.083-.137.117-.164.103a1.848 1.848 0 0 0-1.164-.39c-.871 0-1.515.397-1.93 1.19-.415.794-.621 1.848-.621 3.162v4.208c0 .179-.041.302-.123.37a.463.463 0 0 1-.307.103h-.102c-.3 0-.449-.157-.449-.473m6.614.38c-.081-.06-.122-.188-.122-.38v-9.258c0-.013.03-.034.092-.062a.582.582 0 0 1 .235-.041c.176 0 .327.066.45.196.121.13.182.393.182.79v.883a3.95 3.95 0 0 1 1.358-1.437c.592-.383 1.297-.575 2.114-.575.639 0 1.2.102 1.684.307.483.206.888.5 1.214.883.327.383.572.839.736 1.365.162.528.244 1.12.244 1.776v5.173c0 .192-.04.32-.122.38a.489.489 0 0 1-.307.093h-.122a.49.49 0 0 1-.306-.093c-.082-.06-.123-.188-.123-.38v-5.111c0-1.067-.252-1.913-.756-2.535-.503-.623-1.23-.935-2.183-.935-.817 0-1.515.206-2.093.616a3.873 3.873 0 0 0-1.317 1.643v6.322c0 .192-.04.32-.123.38a.489.489 0 0 1-.306.093h-.122a.49.49 0 0 1-.307-.093m20.213.236c-.98 0-1.873-.167-2.676-.502a5.992 5.992 0 0 1-2.062-1.406 6.292 6.292 0 0 1-1.326-2.156c-.314-.835-.47-1.752-.47-2.75 0-1 .16-1.92.48-2.763a6.45 6.45 0 0 1 1.347-2.176 6.156 6.156 0 0 1 2.072-1.426c.803-.343 1.688-.513 2.654-.513 1.035 0 1.899.16 2.594.482.693.322 1.238.681 1.633 1.078.231.233.404.465.52.698.116.233.174.418.174.554a.588.588 0 0 1-.082.328.652.652 0 0 1-.194.195.654.654 0 0 1-.204.093c-.061.014-.099.014-.112 0-.354-.739-.916-1.347-1.684-1.828-.77-.478-1.664-.717-2.686-.717-.802 0-1.538.147-2.204.441a5.042 5.042 0 0 0-1.725 1.242 5.68 5.68 0 0 0-1.124 1.899 6.98 6.98 0 0 0-.397 2.391 6.9 6.9 0 0 0 .397 2.382 5.57 5.57 0 0 0 1.124 1.878c.482.527 1.064.94 1.745 1.242a5.48 5.48 0 0 0 2.247.452c.611 0 1.162-.08 1.653-.236a4.67 4.67 0 0 0 1.297-.637c.373-.267.686-.571.939-.913.251-.342.438-.699.56-1.068.014-.013.055-.013.123 0a.899.899 0 0 1 .225.082.669.669 0 0 1 .225.195.52.52 0 0 1 .101.32c0 .149-.07.376-.214.677-.143.3-.372.602-.684.902-.395.397-.953.757-1.674 1.078-.721.322-1.586.483-2.592.483m7.104-.617v-9.258c0-.013.03-.034.093-.062a.577.577 0 0 1 .234-.041.6.6 0 0 1 .45.196c.122.13.182.393.182.79v1.231c.205-.82.535-1.42.991-1.796.456-.376 1.011-.564 1.664-.564.394 0 .72.075.98.225.259.152.388.35.388.595 0 .193-.04.33-.122.411-.082.083-.137.117-.164.103a1.847 1.847 0 0 0-1.164-.39c-.871 0-1.514.397-1.93 1.19-.414.794-.621 1.848-.621 3.162v4.208c0 .179-.041.302-.123.37a.463.463 0 0 1-.307.103h-.102c-.3 0-.449-.157-.449-.473m10.617-.246a3.82 3.82 0 0 0 2.817-1.19c.355-.37.63-.812.827-1.325a4.573 4.573 0 0 0 .296-1.652 4.63 4.63 0 0 0-.296-1.673 4.149 4.149 0 0 0-.816-1.335 3.815 3.815 0 0 0-2.828-1.221c-.572 0-1.1.107-1.582.319a3.807 3.807 0 0 0-1.256.882 4.06 4.06 0 0 0-.827 1.324 4.552 4.552 0 0 0-.296 1.663c0 .588.1 1.14.296 1.652.197.513.473.962.827 1.345s.772.681 1.256.893c.482.212 1.01.318 1.582.318m0 .863a5 5 0 0 1-1.991-.39 4.754 4.754 0 0 1-1.562-1.068 4.885 4.885 0 0 1-1.02-1.601 5.392 5.392 0 0 1-.368-2.012c0-.726.122-1.396.368-2.012a4.88 4.88 0 0 1 1.02-1.6 4.615 4.615 0 0 1 1.562-1.058 5.11 5.11 0 0 1 1.99-.38c.722 0 1.382.13 1.981.39.6.26 1.116.616 1.552 1.067.436.452.776.989 1.021 1.611a5.49 5.49 0 0 1 .367 2.023c0 .712-.122 1.375-.367 1.991a4.872 4.872 0 0 1-1.02 1.602 4.647 4.647 0 0 1-1.553 1.057c-.6.253-1.26.38-1.98.38m9.983-.001c-.857 0-1.569-.113-2.133-.338-.566-.226-.997-.49-1.297-.791a2.269 2.269 0 0 1-.368-.451.728.728 0 0 1-.101-.35c0-.108.026-.197.082-.266a.778.778 0 0 1 .173-.165.562.562 0 0 1 .276-.101c.298.465.724.855 1.276 1.169.551.316 1.262.472 2.132.472.885 0 1.57-.177 2.053-.533.483-.356.724-.808.724-1.355 0-.329-.07-.599-.214-.81a1.616 1.616 0 0 0-.612-.525 4.703 4.703 0 0 0-.95-.349 30.54 30.54 0 0 0-1.225-.288 31.363 31.363 0 0 1-1.204-.276 4.21 4.21 0 0 1-1.103-.441 2.548 2.548 0 0 1-.806-.74c-.211-.3-.317-.69-.317-1.17 0-.41.089-.79.266-1.139.177-.35.422-.647.735-.894a3.506 3.506 0 0 1 1.133-.574 5.012 5.012 0 0 1 1.48-.205c.762 0 1.402.106 1.92.318.516.212.919.461 1.204.75.245.246.367.485.367.718a.425.425 0 0 1-.082.256.677.677 0 0 1-.173.174.545.545 0 0 1-.173.083c-.054.014-.089.014-.102 0-.245-.425-.626-.777-1.144-1.058-.517-.28-1.122-.42-1.817-.42-.844 0-1.5.175-1.97.523-.47.35-.704.79-.704 1.325 0 .3.068.554.204.76.136.204.33.376.582.512.251.137.558.254.918.35.361.095.759.191 1.195.287.408.082.823.177 1.245.288.422.109.803.263 1.143.462.34.198.62.45.837.758.218.309.327.702.327 1.181 0 .85-.337 1.537-1.01 2.063-.674.528-1.597.79-2.767.79"/><g transform="translate(168.373 36.65)"><mask id="b" fill="#fff"><use xlink:href="#a"/></mask><path fill="#3093CC" d="M4.011 10.29c-.858 0-1.57-.113-2.133-.339-.566-.226-.998-.49-1.297-.79a2.278 2.278 0 0 1-.368-.452.728.728 0 0 1-.102-.35c0-.108.027-.197.082-.266a.777.777 0 0 1 .174-.164.562.562 0 0 1 .275-.102c.299.466.725.855 1.277 1.17.55.315 1.261.472 2.132.472.885 0 1.57-.178 2.052-.534.484-.356.725-.807.725-1.354 0-.33-.071-.6-.214-.811a1.615 1.615 0 0 0-.612-.525 4.709 4.709 0 0 0-.95-.348 29.224 29.224 0 0 0-1.225-.288 31.152 31.152 0 0 1-1.204-.276A4.203 4.203 0 0 1 1.52 4.89a2.548 2.548 0 0 1-.807-.739c-.21-.3-.316-.69-.316-1.17 0-.41.088-.79.266-1.14A2.65 2.65 0 0 1 1.397.95 3.506 3.506 0 0 1 2.53.374 5.013 5.013 0 0 1 4.011.17c.762 0 1.401.106 1.919.319.517.212.919.46 1.204.749.246.246.368.486.368.718a.425.425 0 0 1-.082.257.676.676 0 0 1-.173.174.546.546 0 0 1-.174.082c-.054.014-.088.014-.101 0-.246-.424-.627-.776-1.144-1.057C5.31 1.13 4.705.99 4.01.99c-.845 0-1.5.175-1.97.524-.47.349-.704.79-.704 1.324 0 .3.067.554.204.76.136.205.33.376.581.513.252.136.559.253.919.349.361.096.758.192 1.195.287.408.082.823.178 1.244.288.422.11.803.263 1.144.462.34.198.62.45.837.759.217.308.327.701.327 1.18 0 .85-.337 1.537-1.01 2.063-.675.528-1.597.791-2.767.791" mask="url(#b)"/></g><path fill="#3093CC" d="M50 55.068h1.467c1.213 0 1.857-.572 1.857-1.596s-.644-1.581-1.872-1.581H50v3.177zm-2.186 3.884v-7.558c0-.783.434-1.235 1.153-1.235h2.53c2.56 0 3.983 1.145 3.983 3.298 0 2.168-1.363 3.282-3.983 3.282H50.03v2.213c0 .632-.33 1.009-.958 1.009h-.33c-.584 0-.928-.347-.928-1.01zm9.956-3.388h3.594c-.045-1.023-.69-1.701-1.707-1.701-.988 0-1.737.708-1.887 1.701m-1.902.723c0-2.243 1.603-3.9 3.819-3.9 2.156 0 3.638 1.521 3.638 3.674v.15c-.015.377-.12.588-.509.588H57.77c.15 1.099.988 1.746 2.126 1.746 1.108 0 1.722-.497 2.067-1.084.015-.03 1.018.106 1.018.949 0 .798-1.123 1.686-3.16 1.686-2.38 0-3.953-1.49-3.953-3.809"/><g transform="translate(63.57 50.471)"><mask id="d" fill="#fff"><use xlink:href="#c"/></mask><path fill="#3093CC" d="M.234 3v-.135c0-.512.285-.783.884-.783h.359v-.933c0-.693.36-1.024.958-1.024h.18c.569 0 .943.24.943 1.024v.933h1.273c.599 0 .853.256.853.753v.12c0 .512-.27.783-.868.783H3.513V6.87c0 .722.24 1.084.809 1.084.434 0 .719-.21.943-.497.03-.045.51.24.51.828 0 .738-.734 1.34-1.932 1.34-1.617 0-2.366-.858-2.366-2.514V3.738h-.36c-.598 0-.883-.256-.883-.737" mask="url(#d)"/></g><path fill="#3093CC" d="M73.146 58.952v-7.844c0-.678.33-1.009.943-1.009h.3c.644 0 .973.331.973 1.009v7.844c0 .662-.33 1.009-.973 1.009h-.3c-.614 0-.943-.347-.943-1.01m5.869-5.269c.51-.752 1.273-1.294 2.41-1.294 1.902 0 2.711 1.354 2.711 3.04v3.524c0 .768-.39 1.008-.928 1.008h-.225c-.569 0-.958-.225-.958-1.008v-3.207c0-.979-.494-1.581-1.348-1.581-.749 0-1.317.392-1.617.963v3.825c0 .768-.39 1.008-.928 1.008h-.225c-.569 0-.958-.225-.958-1.008v-6.233c0-.06.374-.241.793-.241.54 0 1.123.256 1.273 1.204m6.363 4.788c0-.542.599-.918.644-.873.509.542 1.333.979 2.41.979.824 0 1.288-.242 1.288-.708 0-.557-.584-.647-1.572-.858-1.003-.226-2.575-.557-2.575-2.228 0-1.43 1.197-2.38 3.054-2.38 1.977 0 2.965.723 2.965 1.566 0 .558-.644.95-.689.904a2.883 2.883 0 0 0-2.141-.979c-.794 0-1.243.256-1.243.723 0 .527.584.602 1.557.828 1.033.226 2.695.572 2.695 2.243 0 1.476-1.212 2.379-3.219 2.379-2.141 0-3.174-.753-3.174-1.596m12.682.331c-.51.753-1.258 1.295-2.396 1.295-1.917 0-2.71-1.355-2.71-3.041v-3.553c0-.768.389-1.024.928-1.024h.225c.553 0 .958.24.958 1.024v3.237c0 .978.494 1.58 1.377 1.58.704 0 1.273-.39 1.572-.963v-3.854c0-.768.39-1.024.944-1.024h.21c.568 0 .958.24.958 1.024v6.218c0 .075-.36.24-.794.24-.524 0-1.108-.225-1.273-1.159m5.734-5.073c.3-.843.899-1.34 1.782-1.34.854 0 1.363.481 1.363 1.234 0 .843-.644 1.144-.674 1.114a1.384 1.384 0 0 0-.959-.361c-1.033 0-1.482.903-1.482 2.379v2.198c0 .767-.389 1.009-.928 1.009h-.225c-.569 0-.958-.226-.958-1.01V52.72c0-.06.374-.241.794-.241.554 0 1.153.256 1.287 1.25m8.669 3.296v-.422l-.39.015c-1.661.045-2.53.377-2.53 1.174 0 .543.435.889 1.138.889 1.049 0 1.782-.693 1.782-1.656m-4.941.918c0-1.686 1.497-2.454 4.701-2.5h.24c0-.948-.524-1.46-1.497-1.46-1.018 0-1.542.558-1.812 1.13 0 .03-1.362.075-1.362-.904 0-.918 1.077-1.821 3.308-1.821 2.306 0 3.444 1.053 3.444 3.026v4.351c0 .105-.389.24-.793.24-.674 0-1.123-.36-1.243-1.159-.524.768-1.452 1.22-2.53 1.22-1.528 0-2.456-.873-2.456-2.123m10.54-4.261c.51-.752 1.273-1.294 2.411-1.294 1.902 0 2.71 1.354 2.71 3.04v3.524c0 .768-.39 1.008-.928 1.008h-.225c-.569 0-.958-.225-.958-1.008v-3.207c0-.979-.494-1.581-1.348-1.581-.748 0-1.317.392-1.617.963v3.825c0 .768-.389 1.008-.928 1.008h-.225c-.569 0-.958-.225-.958-1.008v-6.233c0-.06.374-.241.794-.241.539 0 1.123.256 1.272 1.204"/><g transform="translate(124.193 52.199)"><mask id="f" fill="#fff"><use xlink:href="#e"/></mask><path fill="#3093CC" d="M.036 4.028C.036 1.8 1.653.204 3.884.204S7 1.484 7 2.191c0 .858-1.123 1.01-1.168.934-.285-.708-.824-1.22-1.857-1.22-1.153 0-1.991.889-1.991 2.123 0 1.265.838 2.168 1.991 2.168 1.003 0 1.572-.512 1.857-1.22.03-.09 1.168.046 1.168.95 0 .692-.929 1.972-3.115 1.972-2.26 0-3.848-1.597-3.848-3.87" mask="url(#f)"/></g><path fill="#3093CC" d="M133.976 55.564h3.594c-.045-1.023-.69-1.701-1.707-1.701-.989 0-1.737.708-1.887 1.701m-1.901.723c0-2.243 1.602-3.9 3.818-3.9 2.156 0 3.638 1.521 3.638 3.674v.15c-.015.377-.12.588-.509.588h-5.046c.15 1.099.988 1.746 2.126 1.746 1.108 0 1.722-.497 2.067-1.084.015-.03 1.018.106 1.018.949 0 .798-1.123 1.686-3.16 1.686-2.38 0-3.952-1.49-3.952-3.809"/></g></svg>