<svg xmlns="http://www.w3.org/2000/svg" width="112" height="24" viewBox="0 0 112 24">
    <g fill="none" fill-rule="evenodd">
        <text fill="#525252" font-family="Omnes-Regular, Omnes" font-size="11">
            <tspan x="17.348" y="10.912">Proudly </tspan> <tspan x="2.388" y="21.912">supporting</tspan>
        </text>
        <g fill-rule="nonzero">
            <path fill="#1378C6" d="M112 4.427C112 1.988 109.946 0 107.426 0H65.574C63.054 0 61 1.988 61 4.427v15.146C61 22.012 63.054 24 65.574 24h41.852c2.52 0 4.574-1.988 4.574-4.427V4.427z"/>
            <path fill="#FFF" d="M102.855 6.478c0-.606.497-1.103 1.123-1.103.61 0 1.123.497 1.123 1.103s-.497 1.118-1.123 1.118a1.115 1.115 0 0 1-1.123-1.118zm2.038 0a.927.927 0 0 0-.915-.917.916.916 0 0 0-.915.917c0 .497.417.932.915.932a.93.93 0 0 0 .915-.932zm-1.3-.528h.417c.225 0 .37.093.37.264 0 .155-.081.233-.194.295l.257.435-.273.03-.224-.419h-.113v.404h-.256V5.95h.016zm.256.466h.097c.128 0 .176-.094.176-.171 0-.109-.08-.14-.16-.14h-.113v.31zM106.337 18.081h-3.05l-1.187-3.37h-4.43c-1.299 1.071-2.791 1.258-2.791 1.258l4.365-10.392h2.246l4.847 12.504zm-7.912-5.033h3.242l-1.589-4.706-1.653 4.706zM70.53 18.299c-1.508 0-2.92-.466-3.803-1.258l-.048-.047 1.011-1.538.064.047c.722.512 1.477.978 2.568.978.883 0 1.91-.434 1.91-1.63 0-1.072-1.124-1.85-2.103-2.548-1.685-1.18-2.904-2.128-2.904-3.868 0-1.724 1.813-3.076 4.124-3.076 1.557 0 2.712.56 3.274 1.103l.048.047-.995 1.398-.064-.047c-.402-.264-1.188-.699-2.022-.699-.963 0-1.573.482-1.573 1.227 0 .715.802 1.336 2.359 2.517 1.701 1.274 2.648 2.36 2.648 3.945 0 1.71-1.685 3.449-4.493 3.449zM79.343 18.082h-2.729V5.592h4.093c3.049 0 4.734 1.29 4.734 3.635 0 1.445-.867 3.402-3.258 3.993-1.236.295-2.279-.389-2.054-1.554 1.38.124 2.6-.637 2.6-2.345 0-1.243-.819-1.911-2.295-1.911h-1.075v10.672h-.016z"/>
            <path fill="#FFF" d="M93.64 5.375c-2.198 0-4.091.683-5.471 1.957a6.151 6.151 0 0 0-2.006 4.567c0 1.29.337 2.548.962 3.573.562.901 1.413 1.678 2.456 2.237 1.123.606 2.423.916 3.755.916h.096c2.825-.03 4.686-1.367 4.943-2.314.112-.404-.032-.73-.417-.932l-.064-.047-.065.047c-1.332 1.087-2.792 1.32-3.787 1.32-.738 0-1.46-.124-2.102-.357-1.701-.622-2.76-2.346-2.76-4.396 0-2.719 1.797-4.552 4.477-4.552 1.14 0 2.247.497 2.551.653l.113.062.048-.109.674-1.6.032-.093-.096-.062c-.754-.404-1.958-.87-3.338-.87z"/>
        </g>
    </g>
</svg>
