<svg xmlns="http://www.w3.org/2000/svg" xmlns:xlink="http://www.w3.org/1999/xlink" width="34" height="33" viewBox="0 0 34 33">
    <defs>
        <path id="a" d="M20.665 10.002h11.359a16.11 16.11 0 0 1 1.314 6.392c0 9.053-7.463 16.393-16.669 16.393-.313 0-.624-.008-.933-.025l6.786-11.557a7.398 7.398 0 0 0 1.775-4.811c0-2.703-1.453-5.072-3.632-6.392zM2.677 7.479l7.01 11.94c1.183 2.637 3.864 4.477 6.982 4.477a7.7 7.7 0 0 0 3.439-.804l-5.61 9.557C6.318 31.603 0 24.724 0 16.394c0-3.288.984-6.349 2.677-8.915zm13.992 3.08c3.277 0 5.933 2.612 5.933 5.835 0 3.222-2.656 5.834-5.933 5.834-3.277 0-5.933-2.612-5.933-5.834 0-3.223 2.656-5.835 5.933-5.835zm0-10.559c6.457 0 12.056 3.61 14.825 8.891H16.386c-3.984.148-7.189 3.296-7.34 7.213L3.394 6.477A16.739 16.739 0 0 1 16.67 0z"/>
    </defs>
    <g fill="none" fill-rule="evenodd">
        <mask id="b" fill="#fff">
            <use xlink:href="#a"/>
        </mask>
        <use fill="#337DC2" xlink:href="#a"/>
        <path fill="#DF2026" d="M2.177 4.799l6.675 12.656.875-3.687 2.45-3.064L16.414 9.6l4.306-.242 15.81-.215L20.128-2.139 8.828-.115z" mask="url(#b)"/>
        <path fill="#FCD207" d="M18.925 9.48l2.56 2.585 1.645 2.583v2.171l-1.23 3.338-7.204 13.347 3.818.206 8.288-2.75 5.844-7.12 1.957-7.156-.84-5.608-1.052-1.484z" mask="url(#b)"/>
        <path fill="#4BB847" d="M2.36 6.484l2.87 4.747 4.165 6.231 2.098 3.441 1.82 1.345 2.349.655 3.188-.071 1.828-.726-6.509 11.7-11.44-4.37L-2.03 19.22l.525-7.675z" mask="url(#b)"/>
    </g>
</svg>
