<svg xmlns="http://www.w3.org/2000/svg" width="33" height="34" viewBox="0 0 33 34">
    <defs>
        <radialGradient id="eth9nfti3b" cx="85.913%" cy="-12.934%" r="127.767%" fx="85.913%" fy="-12.934%" gradientTransform="matrix(.81683 0 0 1 .157 0)">
            <stop offset="12.9%" stop-color="#FFBD4F"/>
            <stop offset="18.6%" stop-color="#FFAC31"/>
            <stop offset="24.7%" stop-color="#FF9D17"/>
            <stop offset="28.3%" stop-color="#FF980E"/>
            <stop offset="40.3%" stop-color="#FF563B"/>
            <stop offset="46.7%" stop-color="#FF3750"/>
            <stop offset="71%" stop-color="#F5156C"/>
            <stop offset="78.2%" stop-color="#EB0878"/>
            <stop offset="86%" stop-color="#E50080"/>
        </radialGradient>
        <radialGradient id="u10uakyhrc" cx="47.778%" cy="39.538%" r="127.767%" fx="47.778%" fy="39.538%" gradientTransform="matrix(.81683 0 0 1 .088 0)">
            <stop offset="30%" stop-color="#960E18"/>
            <stop offset="35.1%" stop-color="#B11927" stop-opacity=".74"/>
            <stop offset="43.5%" stop-color="#DB293D" stop-opacity=".343"/>
            <stop offset="49.7%" stop-color="#F5334B" stop-opacity=".094"/>
            <stop offset="53%" stop-color="#FF3750" stop-opacity="0"/>
        </radialGradient>
        <radialGradient id="gu167p7i2d" cx="49.996%" cy="-29.998%" r="314.953%" fx="49.996%" fy="-29.998%" gradientTransform="matrix(1 0 0 .5863 0 -.124)">
            <stop offset="13.2%" stop-color="#FFF44F"/>
            <stop offset="25.2%" stop-color="#FFDC3E"/>
            <stop offset="50.6%" stop-color="#FF9D12"/>
            <stop offset="52.6%" stop-color="#FF980E"/>
        </radialGradient>
        <radialGradient id="6noaulzape" cx="19.455%" cy="110.087%" r="111.743%" fx="19.455%" fy="110.087%" gradientTransform="matrix(1 0 0 .90814 0 .101)">
            <stop offset="35.3%" stop-color="#3A8EE6"/>
            <stop offset="47.2%" stop-color="#5C79F0"/>
            <stop offset="66.9%" stop-color="#9059FF"/>
            <stop offset="100%" stop-color="#C139E6"/>
        </radialGradient>
        <radialGradient id="7g9wmocv6f" cx="58.238%" cy="36.619%" r="59.261%" fx="58.238%" fy="36.619%" gradientTransform="scale(1 .90814) rotate(-13.651 .737 .385)">
            <stop offset="20.6%" stop-color="#9059FF" stop-opacity="0"/>
            <stop offset="27.8%" stop-color="#8C4FF3" stop-opacity=".064"/>
            <stop offset="74.7%" stop-color="#7716A8" stop-opacity=".45"/>
            <stop offset="97.5%" stop-color="#6E008B" stop-opacity=".6"/>
        </radialGradient>
        <radialGradient id="rto1jg0xsg" cx="208.116%" cy="-103.936%" r="293.24%" fx="208.116%" fy="-103.936%" gradientTransform="matrix(1 0 0 .9918 0 -.009)">
            <stop offset="0%" stop-color="#FFE226"/>
            <stop offset="12.1%" stop-color="#FFDB27"/>
            <stop offset="29.5%" stop-color="#FFC82A"/>
            <stop offset="50.2%" stop-color="#FFA930"/>
            <stop offset="73.2%" stop-color="#FF7E37"/>
            <stop offset="79.2%" stop-color="#FF7139"/>
        </radialGradient>
        <radialGradient id="m2uh4u05gh" cx="79.305%" cy="-40.886%" r="192.915%" fx="79.305%" fy="-40.886%" gradientTransform="matrix(.84336 0 0 1 .124 0)">
            <stop offset="11.3%" stop-color="#FFF44F"/>
            <stop offset="45.6%" stop-color="#FF980E"/>
            <stop offset="62.2%" stop-color="#FF5634"/>
            <stop offset="71.6%" stop-color="#FF3647"/>
            <stop offset="90.4%" stop-color="#E31587"/>
        </radialGradient>
        <radialGradient id="q2a7ai1i0i" cx="6.322%" cy="-10.342%" r="350.312%" fx="6.322%" fy="-10.342%" gradientTransform="scale(1 .4714) rotate(84.003 .128 -.161)">
            <stop offset="0%" stop-color="#FFF44F"/>
            <stop offset="6%" stop-color="#FFE847"/>
            <stop offset="16.8%" stop-color="#FFC830"/>
            <stop offset="30.4%" stop-color="#FF980E"/>
            <stop offset="35.6%" stop-color="#FF8B16"/>
            <stop offset="45.5%" stop-color="#FF672A"/>
            <stop offset="57%" stop-color="#FF3647"/>
            <stop offset="73.7%" stop-color="#E31587"/>
        </radialGradient>
        <radialGradient id="rkyn7squ4j" cx="15.372%" cy="-42.681%" r="237.613%" fx="15.372%" fy="-42.681%" gradientTransform="matrix(.98576 0 0 1 .002 0)">
            <stop offset="13.7%" stop-color="#FFF44F"/>
            <stop offset="48%" stop-color="#FF980E"/>
            <stop offset="59.2%" stop-color="#FF5634"/>
            <stop offset="65.5%" stop-color="#FF3647"/>
            <stop offset="90.4%" stop-color="#E31587"/>
        </radialGradient>
        <radialGradient id="2ahn9hkgjk" cx="155.387%" cy="-44.592%" r="311.416%" fx="155.387%" fy="-44.592%" gradientTransform="matrix(.8996 0 0 1 .156 0)">
            <stop offset="9.4%" stop-color="#FFF44F"/>
            <stop offset="23.1%" stop-color="#FFE141"/>
            <stop offset="50.9%" stop-color="#FFAF1E"/>
            <stop offset="62.6%" stop-color="#FF980E"/>
        </radialGradient>
        <linearGradient id="2x5kam6kqa" x1="86.922%" x2="9.736%" y1="15.492%" y2="93.116%">
            <stop offset="4.8%" stop-color="#FFF44F"/>
            <stop offset="11.1%" stop-color="#FFE847"/>
            <stop offset="22.5%" stop-color="#FFC830"/>
            <stop offset="36.8%" stop-color="#FF980E"/>
            <stop offset="40.1%" stop-color="#FF8B16"/>
            <stop offset="46.2%" stop-color="#FF672A"/>
            <stop offset="53.4%" stop-color="#FF3647"/>
            <stop offset="70.5%" stop-color="#E31587"/>
        </linearGradient>
        <linearGradient id="jag05u80tl" x1="85.995%" x2="20.317%" y1="15.077%" y2="83.535%">
            <stop offset="16.7%" stop-color="#FFF44F" stop-opacity=".8"/>
            <stop offset="26.6%" stop-color="#FFF44F" stop-opacity=".634"/>
            <stop offset="48.9%" stop-color="#FFF44F" stop-opacity=".217"/>
            <stop offset="60%" stop-color="#FFF44F" stop-opacity="0"/>
        </linearGradient>
    </defs>
    <g fill="none">
        <path fill="url(#2x5kam6kqa)" d="M31.568 11.401c-.712-1.722-2.157-3.581-3.29-4.169.808 1.57 1.368 3.257 1.661 5l.003.028c-1.854-4.644-4.997-6.516-7.565-10.592-.13-.206-.26-.413-.386-.631-.073-.125-.13-.237-.181-.34-.106-.207-.189-.426-.244-.652 0-.022-.016-.04-.038-.043-.01-.003-.02-.003-.03 0-.003 0-.006.004-.009.005l-.012.006.007-.01c-4.119 2.422-5.516 6.906-5.645 9.15-1.645.113-3.217.722-4.512 1.747-.136-.115-.277-.223-.423-.323-.374-1.313-.39-2.704-.047-4.026-1.512.736-2.856 1.78-3.946 3.065h-.008c-.65-.828-.604-3.556-.567-4.126-.192.077-.376.175-.547.292-.574.411-1.11.872-1.603 1.379-.561.572-1.074 1.19-1.533 1.847v.003-.003C1.6 10.509.851 12.205.453 13.998l-.022.11c-.03.144-.142.87-.161 1.028 0 .012-.003.024-.004.036-.143.75-.232 1.508-.266 2.27v.086c.007 8.55 6.526 15.673 15.006 16.399 8.481.725 16.105-5.188 17.551-13.614.028-.212.05-.423.075-.637.338-2.804-.028-5.649-1.064-8.275zM12.67 24.295c.077.037.149.077.228.112l.011.008c-.08-.039-.159-.079-.239-.12z"/>
        <path fill="url(#eth9nfti3b)" d="M31.568 11.401c-.712-1.722-2.157-3.581-3.29-4.169.808 1.57 1.368 3.257 1.661 5v.016l.003.017c1.264 3.633 1.081 7.616-.51 11.117-1.88 4.05-6.428 8.203-13.548 8C8.19 31.165 1.414 25.43.148 17.919c-.23-1.185 0-1.785.116-2.748-.159.748-.247 1.509-.264 2.273v.085c.007 8.55 6.526 15.673 15.006 16.399 8.481.725 16.105-5.188 17.551-13.614.028-.212.05-.423.075-.637.338-2.804-.028-5.649-1.064-8.275z"/>
        <path fill="url(#u10uakyhrc)" d="M31.568 11.401c-.712-1.722-2.157-3.581-3.29-4.169.808 1.57 1.368 3.257 1.661 5v.016l.003.017c1.264 3.633 1.081 7.616-.51 11.117-1.88 4.05-6.428 8.203-13.548 8C8.19 31.165 1.414 25.43.148 17.919c-.23-1.185 0-1.785.116-2.748-.159.748-.247 1.509-.264 2.273v.085c.007 8.55 6.526 15.673 15.006 16.399 8.481.725 16.105-5.188 17.551-13.614.028-.212.05-.423.075-.637.338-2.804-.028-5.649-1.064-8.275z"/>
        <path fill="url(#gu167p7i2d)" d="M23.6 13.338c.036.025.069.05.102.075-.412-.734-.925-1.405-1.523-1.995C17.083 6.298 20.843.315 21.478.01l.006-.009c-4.119 2.423-5.516 6.907-5.645 9.15.191-.013.38-.029.576-.029 2.975.005 5.718 1.615 7.185 4.215z"/>
        <path fill="url(#6noaulzape)" d="M16.426 14.36c-.027.41-1.468 1.823-1.972 1.823-4.663 0-5.42 2.834-5.42 2.834.207 2.386 1.862 4.35 3.863 5.39.091.048.184.09.276.133.16.071.321.137.482.198.686.244 1.406.383 2.133.413 8.173.386 9.756-9.817 3.858-12.778 1.392-.181 2.8.162 3.954.965-1.467-2.6-4.21-4.21-7.185-4.215-.194 0-.385.016-.576.03-1.645.113-3.217.722-4.512 1.747.25.212.532.496 1.126 1.085 1.113 1.1 3.967 2.241 3.973 2.375z"/>
        <path fill="url(#7g9wmocv6f)" d="M16.426 14.36c-.027.41-1.468 1.823-1.972 1.823-4.663 0-5.42 2.834-5.42 2.834.207 2.386 1.862 4.35 3.863 5.39.091.048.184.09.276.133.16.071.321.137.482.198.686.244 1.406.383 2.133.413 8.173.386 9.756-9.817 3.858-12.778 1.392-.181 2.8.162 3.954.965-1.467-2.6-4.21-4.21-7.185-4.215-.194 0-.385.016-.576.03-1.645.113-3.217.722-4.512 1.747.25.212.532.496 1.126 1.085 1.113 1.1 3.967 2.241 3.973 2.375z"/>
        <path fill="url(#rto1jg0xsg)" d="M10.562 10.352c.133.085.243.159.339.225-.374-1.313-.39-2.704-.047-4.026-1.512.736-2.856 1.78-3.946 3.065.08-.003 2.458-.045 3.654.736z"/>
        <path fill="url(#m2uh4u05gh)" d="M.15 17.918c1.265 7.511 8.042 13.246 15.736 13.465 7.12.202 11.669-3.95 13.548-8 1.592-3.502 1.774-7.485.51-11.118v-.016c0-.012-.002-.02 0-.015l.004.027c.581 3.815-1.35 7.512-4.37 10.011l-.01.021c-5.884 4.814-11.515 2.905-12.655 2.125-.08-.038-.159-.078-.238-.12-3.431-1.646-4.849-4.786-4.545-7.48-1.663.026-3.186-.936-3.884-2.453 1.831-1.127 4.113-1.22 6.028-.244 1.942.886 4.152.973 6.157.244-.006-.134-2.86-1.275-3.973-2.376-.594-.589-.876-.872-1.126-1.085-.135-.115-.277-.223-.423-.322-.098-.067-.207-.14-.339-.226-1.196-.781-3.574-.738-3.653-.736h-.008c-.65-.828-.604-3.556-.567-4.126-.192.078-.375.175-.547.292-.574.411-1.11.873-1.603 1.379-.563.57-1.078 1.187-1.539 1.843v.003-.003C1.6 10.509.851 12.205.453 13.998c-.008.034-.59 2.593-.303 3.92z"/>
        <path fill="url(#q2a7ai1i0i)" d="M22.18 11.418c.598.59 1.111 1.263 1.523 1.997.09.069.174.137.246.202 3.717 3.443 1.77 8.31 1.624 8.656 3.02-2.5 4.95-6.196 4.37-10.011-1.855-4.646-4.998-6.518-7.566-10.594-.13-.206-.26-.413-.386-.631-.073-.125-.13-.237-.181-.34-.106-.207-.189-.426-.244-.652 0-.022-.016-.04-.038-.043-.01-.003-.02-.003-.03 0-.003 0-.006.004-.009.005l-.012.006c-.634.302-4.394 6.284.703 11.405z"/>
        <path fill="url(#rkyn7squ4j)" d="M23.946 13.615c-.071-.066-.156-.134-.246-.202-.033-.025-.066-.05-.102-.075-1.153-.803-2.562-1.146-3.953-.965 5.897 2.963 4.315 13.164-3.858 12.778-.728-.03-1.447-.169-2.134-.413-.16-.06-.32-.126-.481-.198-.093-.043-.186-.085-.277-.133l.011.008c1.14.781 6.77 2.69 12.655-2.125l.01-.022c.147-.344 2.094-5.212-1.625-8.653z"/>
        <path fill="url(#2ahn9hkgjk)" d="M9.034 19.017s.757-2.834 5.42-2.834c.504 0 1.946-1.413 1.972-1.823-2.005.73-4.215.643-6.157-.243-1.915-.976-4.197-.884-6.028.243.698 1.517 2.22 2.48 3.884 2.455-.304 2.693 1.114 5.833 4.544 7.48.077.037.149.077.228.112-2.003-1.04-3.656-3.004-3.863-5.39z"/>
        <path fill="url(#jag05u80tl)" d="M31.568 11.401c-.712-1.722-2.157-3.581-3.29-4.169.808 1.57 1.368 3.257 1.661 5l.003.028c-1.854-4.644-4.997-6.516-7.565-10.592-.13-.206-.26-.413-.386-.631-.073-.125-.13-.237-.181-.34-.106-.207-.189-.426-.244-.652 0-.022-.016-.04-.038-.043-.01-.003-.02-.003-.03 0-.003 0-.006.004-.009.005l-.012.006.007-.01c-4.119 2.422-5.516 6.906-5.645 9.15.191-.014.38-.03.576-.03 2.975.005 5.718 1.615 7.185 4.215-1.153-.803-2.562-1.146-3.954-.965 5.898 2.963 4.316 13.164-3.858 12.778-.727-.03-1.447-.169-2.133-.413-.16-.06-.321-.126-.482-.198-.092-.043-.185-.085-.276-.133l.011.008c-.08-.039-.159-.079-.239-.12.077.037.149.077.228.112-2.003-1.04-3.656-3.004-3.863-5.39 0 0 .757-2.834 5.42-2.834.504 0 1.946-1.413 1.972-1.823-.006-.134-2.86-1.275-3.973-2.375-.594-.59-.876-.873-1.126-1.085-.136-.115-.277-.223-.423-.323-.374-1.313-.39-2.704-.047-4.026-1.512.736-2.856 1.78-3.946 3.065h-.008c-.65-.828-.604-3.556-.567-4.126-.192.077-.376.175-.547.292-.574.411-1.11.872-1.603 1.379-.561.572-1.074 1.19-1.533 1.847v.003-.003C1.6 10.509.851 12.205.453 13.998l-.022.11c-.03.144-.17.88-.189 1.039 0 .011 0-.013 0 0-.127.76-.207 1.526-.242 2.296v.085c.007 8.55 6.526 15.673 15.006 16.399 8.481.725 16.105-5.188 17.551-13.614.028-.212.05-.423.075-.637.338-2.804-.028-5.649-1.064-8.275z"/>
    </g>
</svg>
